SplineFontDB: 3.0
FontName: Spinnaker
FullName: Spinnaker Regular
FamilyName: Spinnaker
Weight: Book
Copyright: Copyright (c) 2011, Sorkin Type Co (www.sorkintype.com)\nwith Reserved Font Name "Spinnaker".
Version: 1.001
ItalicAngle: 0
UnderlinePosition: -103
UnderlineWidth: 102
Ascent: 1638
Descent: 410
LayerCount: 2
Layer: 0 1 "Back"  1
Layer: 1 1 "Fore"  0
XUID: [1021 631 1661839179 11935493]
FSType: 0
OS2Version: 3
OS2_WeightWidthSlopeOnly: 0
OS2_UseTypoMetrics: 1
CreationTime: 1323252480
ModificationTime: 1323804484
PfmFamily: 17
TTFWeight: 400
TTFWidth: 5
LineGap: 0
VLineGap: 0
Panose: 2 11 5 5 3 3 0 0 0 4
OS2TypoAscent: 282
OS2TypoAOffset: 1
OS2TypoDescent: -77
OS2TypoDOffset: 1
OS2TypoLinegap: 0
OS2WinAscent: 62
OS2WinAOffset: 1
OS2WinDescent: 0
OS2WinDOffset: 1
HheadAscent: 0
HheadAOffset: 1
HheadDescent: 0
HheadDOffset: 1
OS2SubXSize: 1434
OS2SubYSize: 1331
OS2SubXOff: 0
OS2SubYOff: 287
OS2SupXSize: 1434
OS2SupYSize: 1331
OS2SupXOff: 0
OS2SupYOff: 977
OS2StrikeYSize: 102
OS2StrikeYPos: 512
OS2Vendor: 'STC '
OS2CodePages: 00000001.00000000
OS2UnicodeRanges: a00000af.40000042.00000000.00000000
Lookup: 4 0 1 "'liga' Standard Ligatures in Latin lookup 0"  {"'liga' Standard Ligatures in Latin lookup 0 subtable"  } ['liga' ('latn' <'dflt' > ) ]
Lookup: 257 0 0 "'cpsp' Capital Spacing in Latin lookup 0"  {"'cpsp' Capital Spacing in Latin lookup 0 subtable"  } ['cpsp' ('latn' <'dflt' > ) ]
DEI: 91125
TtTable: prep
PUSHW_1
 511
SCANCTRL
PUSHB_1
 4
SVTCA[y-axis]
EndTTInstrs
TtTable: fpgm
PUSHW_1
 0
FDEF
MPPEM
PUSHW_1
 9
LT
IF
PUSHB_2
 1
 1
INSTCTRL
EIF
PUSHW_1
 511
SCANCTRL
PUSHW_1
 68
SCVTCI
PUSHW_2
 9
 3
SDS
SDB
ENDF
PUSHW_1
 1
FDEF
DUP
DUP
RCVT
ROUND[Black]
WCVTP
PUSHB_1
 1
ADD
ENDF
PUSHW_1
 2
FDEF
PUSHW_1
 1
LOOPCALL
POP
ENDF
PUSHW_1
 3
FDEF
DUP
GC[cur]
PUSHB_1
 3
CINDEX
GC[cur]
GT
IF
SWAP
EIF
DUP
ROLL
DUP
ROLL
MD[grid]
ABS
ROLL
DUP
GC[cur]
DUP
ROUND[Grey]
SUB
ABS
PUSHB_1
 4
CINDEX
GC[cur]
DUP
ROUND[Grey]
SUB
ABS
GT
IF
SWAP
NEG
ROLL
EIF
MDAP[rnd]
DUP
PUSHB_1
 0

StartChar: .notdef
Encoding: 65536 -1 0
Width: 1307
Flags: HW
LayerCount: 2
Fore
SplineSet
184 1000 m 1,0,-1
 1123 1000 l 1,1,-1
 1123 0 l 1,2,-1
 184 0 l 1,3,-1
 184 1000 l 1,0,-1
892 863 m 1,4,-1
 423 863 l 1,5,-1
 657 599 l 1,6,-1
 892 863 l 1,4,-1
568 499 m 1,7,-1
 329 767 l 1,8,-1
 329 230 l 1,9,-1
 568 499 l 1,7,-1
978 239 m 1,10,-1
 978 758 l 1,11,-1
 747 499 l 1,12,-1
 978 239 l 1,10,-1
889 138 m 1,13,-1
 657 398 l 1,14,-1
 425 138 l 1,15,-1
 889 138 l 1,13,-1
EndSplineSet
Ligature2: "'liga' Standard Ligatures in Latin lookup 0 subtable" f l
Ligature2: "'liga' Standard Ligatures in Latin lookup 0 subtable" f i
Position2: "'cpsp' Capital Spacing in Latin lookup 0 subtable" dx=16 dy=0 dh=32 dv=0
EndChar

StartChar: a
Encoding: 97 97 5
Width: 1201
Flags: HW
LayerCount: 2
Fore
SplineSet
837 128 m 1,0,1
 653.762 -20 653.762 -20 452 -20 c 0,2,3
 310.932 -20 310.932 -20 215 54.5 c 0,4,5
 112 134.489 112 134.489 112 263 c 0,6,7
 112 528.555 112 528.555 465.5 617.5 c 0,8,9
 609.199 653.656 609.199 653.656 809 658 c 1,10,11
 803.476 820.949 803.476 820.949 649.5 850.5 c 0,12,13
 600 860 600 860 556 860 c 128,-1,14
 512 860 512 860 478 856 c 128,-1,15
 444 852 444 852 408 845 c 0,16,17
 329.16 829.67 329.16 829.67 274 808 c 1,18,-1
 221 950 l 1,19,20
 361 1020 361 1020 559 1020 c 0,21,22
 868.449 1020 868.449 1020 965.5 823 c 0,23,24
 999 755 999 755 999 661 c 2,25,-1
 999 342 l 2,26,27
 999 240.348 999 240.348 1013.5 205.674 c 0,28,29
 1040.54 141.016 1040.54 141.016 1109 123 c 1,30,-1
 1081 0 l 1,31,32
 894.183 -21.5558 894.183 -21.5558 837 128 c 1,0,1
343 383.5 m 128,-1,34
 302 341 302 341 302 292 c 128,-1,35
 302 243 302 243 316 217.5 c 128,-1,36
 330 192 330 192 353 175 c 0,37,38
 400.353 140 400.353 140 463.176 140 c 128,-1,39
 526 140 526 140 576.5 153.5 c 128,-1,40
 627 167 627 167 670.5 189 c 0,41,42
 754.169 231.316 754.169 231.316 809 293 c 1,43,-1
 809 509 l 1,44,45
 571.094 497.338 571.094 497.338 477.547 461.669 c 128,-1,33
 384 426 384 426 343 383.5 c 128,-1,34
EndSplineSet
EndChar

StartChar: b
Encoding: 98 98 6
Width: 1269
Flags: HW
LayerCount: 2
Fore
SplineSet
374 919 m 1,0,1
 508.667 1020 508.667 1020 698 1020 c 0,2,3
 913.075 1020 913.075 1020 1045 878.5 c 0,4,5
 1174 740.137 1174 740.137 1174 520 c 0,6,7
 1174 280.616 1174 280.616 986 126.5 c 0,8,9
 807.291 -20 807.291 -20 550 -20 c 0,10,11
 436.714 -20 436.714 -20 325.857 -4 c 128,-1,12
 215 12 215 12 184 20 c 1,13,-1
 184 1561 l 1,14,-1
 374 1561 l 1,15,-1
 374 919 l 1,0,1
374 174 m 1,16,17
 450.5 140 450.5 140 552.75 140 c 128,-1,18
 655 140 655 140 731 165 c 128,-1,19
 807 190 807 190 863 237 c 0,20,21
 984 338.554 984 338.554 984 508 c 0,22,23
 984 657.13 984 657.13 905.5 755 c 0,24,25
 821.281 860 821.281 860 685 860 c 0,26,27
 538 860 538 860 431.5 782 c 0,28,29
 396 756 396 756 374 722 c 1,30,-1
 374 174 l 1,16,17
EndSplineSet
EndChar

StartChar: c
Encoding: 99 99 7
Width: 990
Flags: HW
LayerCount: 2
Fore
SplineSet
921 214 m 1,0,-1
 956 73 l 1,1,2
 830.808 -20 830.808 -20 588 -20 c 0,3,4
 356.067 -20 356.067 -20 224 121.5 c 0,5,6
 95 259.714 95 259.714 95 498 c 0,7,8
 95 719.752 95 719.752 240.5 869.5 c 0,9,10
 386.73 1020 386.73 1020 607 1020 c 0,11,12
 804.75 1020 804.75 1020 929 929 c 1,13,-1
 863 780 l 1,14,15
 750.263 864 750.263 864 589 864 c 0,16,17
 450.835 864 450.835 864 366 758.5 c 0,18,19
 285 657.769 285 657.769 285 510 c 0,20,21
 285 351.325 285 351.325 369.5 248.5 c 0,22,23
 458.663 140 458.663 140 614.858 140 c 128,-1,24
 771.053 140 771.053 140 921 214 c 1,0,-1
EndSplineSet
EndChar

StartChar: d
Encoding: 100 100 8
Width: 1269
Flags: HW
LayerCount: 2
Fore
SplineSet
911 95 m 1,0,1
 769.864 -20 769.864 -20 571 -20 c 0,2,3
 355.925 -20 355.925 -20 224 121.5 c 0,4,5
 95 259.863 95 259.863 95 480 c 0,6,7
 95 719.384 95 719.384 283 873.5 c 0,8,9
 461.709 1020 461.709 1020 719 1020 c 0,10,11
 820 1020 820 1020 895 1005 c 1,12,-1
 895 1561 l 1,13,-1
 1085 1561 l 1,14,-1
 1085 0 l 1,15,-1
 940 0 l 1,16,-1
 911 95 l 1,0,1
895 836 m 1,17,18
 790.273 860 790.273 860 702.136 860 c 128,-1,19
 614 860 614 860 538 835 c 128,-1,20
 462 810 462 810 406 763 c 0,21,22
 285 661.446 285 661.446 285 492 c 0,23,24
 285 343.526 285 343.526 363 245 c 0,25,26
 446.125 140 446.125 140 584 140 c 0,27,28
 740.1 140 740.1 140 841.5 218 c 0,29,30
 874 243 874 243 895 276 c 1,31,-1
 895 836 l 1,17,18
EndSplineSet
EndChar

StartChar: e
Encoding: 101 101 9
Width: 1106
Flags: HW
LayerCount: 2
Fore
SplineSet
979.5 778.5 m 128,-1,1
 1010 698 1010 698 1010 609 c 128,-1,2
 1010 520 1010 520 990 400 c 1,3,-1
 294 400 l 1,4,5
 316 279 316 279 392 209.5 c 128,-1,6
 468 140 468 140 607 140 c 0,7,8
 792.571 140 792.571 140 948 208 c 1,9,-1
 980 65 l 1,10,11
 877.348 5.11993 877.348 5.11993 686.5 -14.5 c 0,12,13
 633 -20 633 -20 548 -20 c 128,-1,14
 463 -20 463 -20 370 14 c 128,-1,15
 277 48 277 48 216 114 c 0,16,17
 95 244.918 95 244.918 95 498 c 0,18,19
 95 719.752 95 719.752 240.5 869.5 c 0,20,21
 386.73 1020 386.73 1020 607 1020 c 0,22,23
 788 1020 788 1020 895.5 912.5 c 0,24,0
 949 859 949 859 979.5 778.5 c 128,-1,1
829 547 m 1,25,-1
 833 601 l 1,26,27
 833 784.435 833 784.435 696 844 c 0,28,29
 650 864 650 864 586 864 c 128,-1,30
 522 864 522 864 468.5 839 c 128,-1,31
 415 814 415 814 376 771 c 0,32,33
 296.487 683.332 296.487 683.332 286 547 c 1,34,-1
 829 547 l 1,25,-1
EndSplineSet
EndChar

StartChar: f
Encoding: 102 102 10
Width: 776
Flags: HW
LayerCount: 2
Fore
SplineSet
832 1355 m 1,0,1
 738.455 1404 738.455 1404 647.227 1404 c 128,-1,2
 556 1404 556 1404 510.5 1376 c 128,-1,3
 465 1348 465 1348 439.5 1300 c 0,4,5
 395 1216.24 395 1216.24 395 1050 c 2,6,-1
 395 1000 l 1,7,-1
 781 1000 l 1,8,-1
 781 846 l 1,9,-1
 395 846 l 1,10,-1
 395 0 l 1,11,-1
 204 0 l 1,12,-1
 204 846 l 1,13,-1
 19 846 l 1,14,-1
 19 1000 l 1,15,-1
 204 1000 l 1,16,-1
 204 1038 l 2,17,18
 204 1412.07 204 1412.07 447 1522 c 0,19,20
 531 1560 531 1560 619 1560 c 0,21,22
 764.304 1560 764.304 1560 877 1506 c 1,23,-1
 832 1355 l 1,0,1
EndSplineSet
EndChar

StartChar: g
Encoding: 103 103 11
Width: 1229
Flags: HW
LayerCount: 2
Fore
SplineSet
371 413 m 1,0,1
 323 355.857 323 355.857 323 306.429 c 128,-1,2
 323 257 323 257 357.5 236 c 128,-1,3
 392 215 392 215 448.5 202 c 128,-1,4
 505 189 505 189 577.5 180.5 c 128,-1,5
 650 172 650 172 725 162 c 128,-1,6
 800 152 800 152 872.5 136.5 c 128,-1,7
 945 121 945 121 1001.5 93.5 c 0,8,9
 1127 32.4159 1127 32.4159 1127 -84 c 0,10,11
 1127 -260.213 1127 -260.213 969.5 -377.5 c 0,12,13
 822.457 -487 822.457 -487 627 -487 c 0,14,15
 442.6 -487 442.6 -487 313 -415 c 0,16,17
 162 -331.111 162 -331.111 162 -179 c 0,18,19
 162 -82.7907 162 -82.7907 236.5 12.5 c 0,20,21
 258 40 258 40 282 62 c 1,22,23
 137 117.769 137 117.769 137 241 c 0,24,25
 137 398.231 137 398.231 269 515 c 1,26,27
 223 586.091 223 586.091 223 670.545 c 128,-1,28
 223 755 223 755 258.5 819.5 c 128,-1,29
 294 884 294 884 353 928.5 c 0,30,31
 474.315 1020 474.315 1020 642.891 1020 c 128,-1,32
 811.467 1020 811.467 1020 928 928 c 1,33,34
 994.383 991.366 994.383 991.366 1134 1013.5 c 0,35,36
 1175 1020 1175 1020 1212 1020 c 1,37,-1
 1204 865 l 1,38,39
 1085.23 851.803 1085.23 851.803 1021 818 c 1,40,41
 1055 752.125 1055 752.125 1055 676.062 c 128,-1,42
 1055 600 1055 600 1019.5 536 c 128,-1,43
 984 472 984 472 925 428 c 0,44,45
 804.318 338 804.318 338 644.416 338 c 128,-1,46
 484.514 338 484.514 338 371 413 c 1,0,1
419 763.5 m 0,47,48
 400 728 400 728 400 680 c 128,-1,49
 400 632 400 632 419.5 595.5 c 128,-1,50
 439 559 439 559 473 534.5 c 0,51,52
 540.306 486 540.306 486 645 486 c 0,53,54
 801.457 486 801.457 486 859 592 c 0,55,56
 878 627 878 627 878 675 c 128,-1,57
 878 723 878 723 858.5 760 c 128,-1,58
 839 797 839 797 805 822 c 0,59,60
 738.36 871 738.36 871 633 871 c 0,61,62
 476.535 871 476.535 871 419 763.5 c 0,47,48
421 26 m 1,63,64
 352 -49.6774 352 -49.6774 352 -155 c 0,65,66
 352 -240.302 352 -240.302 451 -287.5 c 0,67,68
 533.854 -327 533.854 -327 613.927 -327 c 128,-1,69
 694 -327 694 -327 746 -316.5 c 128,-1,70
 798 -306 798 -306 840.5 -283 c 0,71,72
 937 -230.776 937 -230.776 937 -137 c 0,73,74
 937 -48.3529 937 -48.3529 765 -18 c 0,75,76
 691.123 -4.96297 691.123 -4.96297 584.562 5.51852 c 128,-1,77
 478 16 478 16 421 26 c 1,63,64
EndSplineSet
EndChar

StartChar: h
Encoding: 104 104 12
Width: 1337
Flags: HW
LayerCount: 2
Fore
SplineSet
374 913 m 1,0,1
 521.762 1020 521.762 1020 718 1020 c 0,2,3
 1174 1020 1174 1020 1174 519 c 2,4,-1
 1174 0 l 1,5,-1
 985 0 l 1,6,-1
 984 507 l 2,7,8
 984 679.785 984 679.785 924.5 764 c 0,9,10
 856.674 860 856.674 860 705 860 c 0,11,12
 542.176 860 542.176 860 431.5 780.5 c 0,13,14
 396 755 396 755 374 722 c 1,15,-1
 374 0 l 1,16,-1
 184 0 l 1,17,-1
 184 1562 l 1,18,-1
 374 1561 l 1,19,-1
 374 913 l 1,0,1
EndSplineSet
EndChar

StartChar: i
Encoding: 105 105 13
Width: 558
Flags: HW
LayerCount: 2
Fore
SplineSet
369 1321 m 128,-1,1
 335 1287 335 1287 279 1287 c 128,-1,2
 223 1287 223 1287 189 1321 c 128,-1,3
 155 1355 155 1355 155 1411 c 128,-1,4
 155 1467 155 1467 189 1500.5 c 128,-1,5
 223 1534 223 1534 279 1534 c 128,-1,6
 335 1534 335 1534 369 1500.5 c 128,-1,7
 403 1467 403 1467 403 1411 c 128,-1,0
 403 1355 403 1355 369 1321 c 128,-1,1
184 1000 m 1,8,-1
 374 1000 l 1,9,-1
 374 0 l 1,10,-1
 184 0 l 1,11,-1
 184 1000 l 1,8,-1
EndSplineSet
EndChar

StartChar: j
Encoding: 106 106 14
Width: 558
Flags: HW
LayerCount: 2
Fore
SplineSet
369 1321 m 128,-1,1
 335 1287 335 1287 279 1287 c 128,-1,2
 223 1287 223 1287 189 1321 c 128,-1,3
 155 1355 155 1355 155 1411 c 128,-1,4
 155 1467 155 1467 189 1500.5 c 128,-1,5
 223 1534 223 1534 279 1534 c 128,-1,6
 335 1534 335 1534 369 1500.5 c 128,-1,7
 403 1467 403 1467 403 1411 c 128,-1,0
 403 1355 403 1355 369 1321 c 128,-1,1
184 1000 m 1,8,-1
 374 1000 l 1,9,-1
 374 -65 l 2,10,11
 374 -307.222 374 -307.222 244 -417 c 0,12,13
 199 -455 199 -455 135 -485 c 1,14,-1
 55 -356 l 1,15,16
 126.429 -313.143 126.429 -313.143 154.5 -257 c 0,17,18
 184 -198 184 -198 184 -85 c 2,19,-1
 184 1000 l 1,8,-1
EndSplineSet
EndChar

StartChar: k
Encoding: 107 107 15
Width: 1112
Flags: HW
LayerCount: 2
Fore
SplineSet
184 1561 m 1,0,-1
 374 1561 l 1,1,-1
 374 560 l 1,2,-1
 823 1000 l 1,3,-1
 1045 1000 l 1,4,-1
 575 540 l 1,5,-1
 855 238 l 1,6,7
 944.411 143.756 944.411 143.756 1067 135 c 1,8,-1
 1038 0 l 1,9,10
 886.943 -20.8354 886.943 -20.8354 792.5 56 c 0,11,12
 763 80 763 80 735 111 c 2,13,-1
 374 501 l 1,14,-1
 374 0 l 1,15,-1
 184 0 l 1,16,-1
 184 1561 l 1,0,-1
EndSplineSet
EndChar

StartChar: l
Encoding: 108 108 16
Width: 556
Flags: HW
LayerCount: 2
Fore
SplineSet
184 1561 m 1,0,-1
 374 1561 l 1,1,-1
 374 342 l 2,2,3
 374 240.348 374 240.348 388.5 205.674 c 0,4,5
 415.539 141.016 415.539 141.016 484 123 c 1,6,-1
 456 0 l 1,7,8
 301.154 -20.0389 301.154 -20.0389 235 82.5 c 0,9,10
 184 161.55 184 161.55 184 328 c 2,11,-1
 184 1561 l 1,0,-1
EndSplineSet
EndChar

StartChar: m
Encoding: 109 109 17
Width: 1902
Flags: HW
LayerCount: 2
Fore
SplineSet
1047 716 m 1,0,1
 1064 631 1064 631 1064 519 c 2,2,-1
 1064 0 l 1,3,-1
 874 0 l 1,4,-1
 874 507 l 2,5,6
 874 685.583 874 685.583 843 746.292 c 128,-1,7
 812 807 812 807 766.5 833.5 c 128,-1,8
 721 860 721 860 663 860 c 128,-1,9
 605 860 605 860 565.5 850 c 128,-1,10
 526 840 526 840 490.5 821.5 c 0,11,12
 416.674 783.027 416.674 783.027 374 718 c 1,13,-1
 374 0 l 1,14,-1
 184 0 l 1,15,-1
 184 1000 l 1,16,-1
 329 1000 l 1,17,-1
 357 905 l 1,18,19
 487 1020 487 1020 658 1020 c 0,20,21
 897.27 1020 897.27 1020 993 866 c 1,22,23
 1080.68 968.299 1080.68 968.299 1225 1006.5 c 0,24,25
 1276 1020 1276 1020 1363.5 1020 c 128,-1,26
 1451 1020 1451 1020 1529 986 c 128,-1,27
 1607 952 1607 952 1653.5 887.5 c 0,28,29
 1739 768.903 1739 768.903 1739 519 c 2,30,-1
 1739 0 l 1,31,-1
 1549 0 l 1,32,-1
 1549 507 l 2,33,34
 1549 685.583 1549 685.583 1518 746.292 c 128,-1,35
 1487 807 1487 807 1441.5 833.5 c 128,-1,36
 1396 860 1396 860 1338 860 c 128,-1,37
 1280 860 1280 860 1240 849.5 c 128,-1,38
 1200 839 1200 839 1164 820.5 c 0,39,40
 1088.96 781.938 1088.96 781.938 1047 716 c 1,0,1
EndSplineSet
EndChar

StartChar: n
Encoding: 110 110 18
Width: 1337
Flags: HW
LayerCount: 2
Fore
SplineSet
358 901 m 1,0,1
 514.864 1020 514.864 1020 718 1020 c 0,2,3
 1174 1020 1174 1020 1174 519 c 2,4,-1
 1174 0 l 1,5,-1
 984 0 l 1,6,-1
 984 507 l 2,7,8
 984 679.785 984 679.785 924.5 764 c 0,9,10
 856.674 860 856.674 860 705 860 c 0,11,12
 542.176 860 542.176 860 431.5 780.5 c 0,13,14
 396 755 396 755 374 722 c 1,15,-1
 374 0 l 1,16,-1
 184 0 l 1,17,-1
 184 1000 l 1,18,-1
 329 1000 l 1,19,-1
 358 901 l 1,0,1
EndSplineSet
EndChar

StartChar: o
Encoding: 111 111 19
Width: 1290
Flags: HW
LayerCount: 2
Fore
SplineSet
95 491 m 0,0,1
 95 605 95 605 140 702 c 128,-1,2
 185 799 185 799 261.5 869.5 c 0,3,4
 424.809 1020 424.809 1020 654 1020 c 0,5,6
 885.485 1020 885.485 1020 1039 877 c 0,7,8
 1195 731.685 1195 731.685 1195 504 c 0,9,10
 1195 281.353 1195 281.353 1028.5 129 c 0,11,12
 865.664 -20 865.664 -20 636 -20 c 0,13,14
 402.481 -20 402.481 -20 250.5 121.5 c 0,15,16
 95 266.276 95 266.276 95 491 c 0,0,1
285 501.5 m 0,17,18
 285 424 285 424 313 357.5 c 128,-1,19
 341 291 341 291 390 242.5 c 0,20,21
 493.557 140 493.557 140 654 140 c 0,22,23
 803 140 803 140 904.5 241.5 c 0,24,25
 1005 342 1005 342 1005 493 c 0,26,27
 1005 651 1005 651 900 756 c 0,28,29
 796 860 796 860 636 860 c 0,30,31
 487.427 860 487.427 860 385.5 757 c 0,32,33
 285 655.442 285 655.442 285 501.5 c 0,17,18
EndSplineSet
EndChar

StartChar: p
Encoding: 112 112 20
Width: 1269
Flags: HW
LayerCount: 2
Fore
SplineSet
601.8 -20 m 0,0,1
 479.6 -20 479.6 -20 374 2 c 1,2,-1
 374 -467 l 1,3,-1
 184 -467 l 1,4,-1
 184 1000 l 1,5,-1
 329 1000 l 1,6,-1
 357 904 l 1,7,8
 499.364 1020 499.364 1020 698 1020 c 0,9,10
 913.791 1020 913.791 1020 1045 883.5 c 0,11,12
 1174 749.298 1174 749.298 1174 530 c 0,13,14
 1174 284.882 1174 284.882 1010.5 131 c 0,15,16
 850.062 -20 850.062 -20 601.8 -20 c 0,0,1
374 173 m 1,17,18
 515.429 140 515.429 140 610.214 140 c 128,-1,19
 705 140 705 140 773 166.5 c 128,-1,20
 841 193 841 193 888 242 c 0,21,22
 984 342.085 984 342.085 984 518 c 0,23,24
 984 665.688 984 665.688 905.5 760.5 c 0,25,26
 823.118 860 823.118 860 685 860 c 0,27,28
 526.549 860 526.549 860 426.5 781.5 c 0,29,30
 394 756 394 756 374 723 c 1,31,-1
 374 173 l 1,17,18
EndSplineSet
EndChar

StartChar: q
Encoding: 113 113 21
Width: 1269
Flags: HW
LayerCount: 2
Fore
SplineSet
895 80 m 1,0,1
 760.333 -21 760.333 -21 571 -21 c 0,2,3
 355.925 -21 355.925 -21 224 120.5 c 0,4,5
 95 258.863 95 258.863 95 479 c 0,6,7
 95 721.948 95 721.948 260.5 872.5 c 0,8,9
 421.546 1019 421.546 1019 668.347 1019 c 128,-1,10
 915.147 1019 915.147 1019 1085 942 c 1,11,-1
 1085 -468 l 1,12,-1
 895 -468 l 1,13,-1
 895 80 l 1,0,1
895 807 m 1,14,15
 795.727 859 795.727 859 682.364 859 c 128,-1,16
 569 859 569 859 500 834 c 128,-1,17
 431 809 431 809 383.5 762 c 0,18,19
 285 664.537 285 664.537 285 491 c 0,20,21
 285 342.526 285 342.526 363 244 c 0,22,23
 446.125 139 446.125 139 584 139 c 0,24,25
 731 139 731 139 837.5 217 c 0,26,27
 873 243 873 243 895 277 c 1,28,-1
 895 807 l 1,14,15
EndSplineSet
EndChar

StartChar: r
Encoding: 114 114 22
Width: 850
Flags: HW
LayerCount: 2
Fore
SplineSet
758 791 m 1,0,1
 696.588 827 696.588 827 633.294 827 c 128,-1,2
 570 827 570 827 528.5 795 c 128,-1,3
 487 763 487 763 455.5 714 c 0,4,5
 394.975 619.85 394.975 619.85 374 494 c 1,6,-1
 374 0 l 1,7,-1
 184 0 l 1,8,-1
 184 1000 l 1,9,-1
 341 1000 l 1,10,-1
 373 817 l 1,11,12
 450.316 957.575 450.316 957.575 570 1003.5 c 0,13,14
 613 1020 613 1020 648.5 1020 c 128,-1,15
 684 1020 684 1020 701 1018.5 c 128,-1,16
 718 1017 718 1017 734 1013.5 c 0,17,18
 766.31 1006.43 766.31 1006.43 801 990 c 1,19,-1
 758 791 l 1,0,1
EndSplineSet
EndChar

StartChar: s
Encoding: 115 115 23
Width: 988
Flags: HW
LayerCount: 2
Fore
SplineSet
144 245 m 1,0,1
 261.864 164.356 261.864 164.356 414 139 c 0,2,3
 462 131 462 131 504 131 c 128,-1,4
 546 131 546 131 583 139 c 128,-1,5
 620 147 620 147 649.5 165 c 0,6,7
 714 204.356 714 204.356 714 277 c 0,8,9
 714 340.6 714 340.6 620.5 383.5 c 0,10,11
 578 403 578 403 524.5 420 c 2,12,-1
 414.5 456 l 1,13,14
 273.165 503.528 273.165 503.528 219.583 545.764 c 128,-1,15
 166 588 166 588 140.5 633 c 128,-1,16
 115 678 115 678 115 744.5 c 128,-1,17
 115 811 115 811 146.5 863.5 c 128,-1,18
 178 916 178 916 231 951 c 0,19,20
 335.486 1020 335.486 1020 472.243 1020 c 0,21,22
 717.745 1020 717.745 1020 868 913 c 1,23,-1
 794 774 l 1,24,25
 639.625 869 639.625 869 479 869 c 0,26,27
 366.295 869 366.295 869 320.5 804 c 0,28,29
 305 782 305 782 305 749 c 128,-1,30
 305 716 305 716 330.5 692 c 128,-1,31
 356 668 356 668 398 649.5 c 128,-1,32
 440 631 440 631 494 614.5 c 2,33,-1
 604 579.5 l 1,34,35
 743.771 533.326 743.771 533.326 797.885 490.163 c 0,36,37
 903 406.321 903 406.321 903 290 c 0,38,39
 903 138.6 903 138.6 776.5 55 c 0,40,41
 663.013 -20 663.013 -20 489 -20 c 0,42,43
 307.064 -20 307.064 -20 159.5 51.5 c 0,44,45
 111 75 111 75 73 107 c 1,46,-1
 144 245 l 1,0,1
EndSplineSet
EndChar

StartChar: t
Encoding: 116 116 24
Width: 694
Flags: HW
LayerCount: 2
Fore
SplineSet
165 846 m 1,0,-1
 58 846 l 1,1,-1
 58 970 l 1,2,-1
 304 1155 l 1,3,-1
 355 1155 l 1,4,-1
 355 1000 l 1,5,-1
 641 1000 l 1,6,-1
 641 846 l 1,7,-1
 355 846 l 1,8,-1
 355 442 l 2,9,10
 355 272.312 355 272.312 398 210.5 c 0,11,12
 440.848 148.906 440.848 148.906 566 135 c 1,13,-1
 537 0 l 1,14,15
 236.808 -37.8621 236.808 -37.8621 181.5 237 c 0,16,17
 165 319 165 319 165 414 c 2,18,-1
 165 846 l 1,0,-1
EndSplineSet
EndChar

StartChar: u
Encoding: 117 117 25
Width: 1295
Flags: HW
LayerCount: 2
Fore
SplineSet
937 97 m 1,0,1
 798.727 -20 798.727 -20 603 -20 c 0,2,3
 363.317 -20 363.317 -20 259.5 107 c 0,4,5
 163 225.049 163 225.049 163 481 c 2,6,-1
 163 1000 l 1,7,-1
 353 1000 l 1,8,-1
 353 493 l 2,9,10
 353 319.483 353 319.483 405 237 c 0,11,12
 466.152 140 466.152 140 616 140 c 0,13,14
 768.846 140 768.846 140 869 224 c 0,15,16
 900 250 900 250 921 281 c 1,17,-1
 921 1000 l 1,18,-1
 1111 1000 l 1,19,-1
 1111 0 l 1,20,-1
 966 0 l 1,21,-1
 937 97 l 1,0,1
EndSplineSet
EndChar

StartChar: v
Encoding: 118 118 26
Width: 1057
Flags: HW
LayerCount: 2
Fore
SplineSet
40 1000 m 1,0,-1
 237 1000 l 1,1,2
 457.135 436.497 457.135 436.497 475.067 386.749 c 2,3,4
 505 301 l 2,5,6
 519 259 519 259 531 219 c 1,7,-1
 543 219 l 1,8,9
 597 386.5 l 2,10,11
 611 428 611 428 625 462 c 2,12,-1
 835 1000 l 1,13,-1
 1017 1000 l 1,14,-1
 627 0 l 1,15,-1
 430 0 l 1,16,-1
 40 1000 l 1,0,-1
EndSplineSet
EndChar

StartChar: w
Encoding: 119 119 27
Width: 1613
Flags: HW
LayerCount: 2
Fore
SplineSet
62 1000 m 1,0,-1
 251 1000 l 1,1,-1
 387 567 l 2,2,3
 401 524 401 524 415.5 468.5 c 2,4,-1
 473 243 l 1,5,-1
 484 243 l 1,6,-1
 541 458.5 l 2,7,8
 556 513 556 513 570 558 c 2,9,-1
 712 1000 l 1,10,-1
 901 1000 l 1,11,-1
 1039 567 l 2,12,13
 1055 517 1055 517 1071 461 c 0,14,15
 1107.91 327.364 1107.91 327.364 1129 243 c 1,16,-1
 1140 243 l 1,17,-1
 1169 351 l 2,18,19
 1199.33 463 1199.33 463 1233 564 c 2,20,-1
 1377 1000 l 1,21,-1
 1551 1000 l 1,22,-1
 1221 0 l 1,23,-1
 1047 0 l 1,24,-1
 801 734 l 1,25,-1
 566 0 l 1,26,-1
 392 0 l 1,27,-1
 62 1000 l 1,0,-1
EndSplineSet
EndChar

StartChar: x
Encoding: 120 120 28
Width: 1069
Flags: HW
LayerCount: 2
Fore
SplineSet
428 509 m 1,0,-1
 56 1000 l 1,1,-1
 269 1000 l 1,2,-1
 541 638 l 1,3,-1
 811 1000 l 1,4,-1
 1013 1000 l 1,5,-1
 641 505 l 1,6,-1
 1023 0 l 1,7,-1
 810 0 l 1,8,-1
 528 376 l 1,9,-1
 248 0 l 1,10,-1
 46 0 l 1,11,-1
 428 509 l 1,0,-1
EndSplineSet
EndChar

StartChar: y
Encoding: 121 121 29
Width: 1057
Flags: HW
LayerCount: 2
Fore
SplineSet
79 -299 m 1,0,1
 130 -318 130 -318 183.5 -318 c 128,-1,2
 237 -318 237 -318 270 -296.5 c 128,-1,3
 303 -275 303 -275 330.5 -238.5 c 0,4,5
 378.072 -175.359 378.072 -175.359 428 -46 c 2,6,-1
 438 -20 l 1,7,-1
 40 1000 l 1,8,-1
 237 1000 l 1,9,-1
 447 457 l 2,10,11
 464 413 464 413 478 368 c 2,12,13
 503 286 l 1,14,15
 515 243 515 243 525 203 c 1,16,-1
 535 203 l 1,17,18
 558 276 l 2,19,20
 583.698 355.429 583.698 355.429 620 448 c 2,21,-1
 835 1000 l 1,22,-1
 1017 1000 l 1,23,-1
 622 0 l 2,24,25
 478.219 -365.705 478.219 -365.705 308 -455 c 0,26,27
 247 -487 247 -487 191.5 -487 c 128,-1,28
 136 -487 136 -487 107.5 -478 c 128,-1,29
 79 -469 79 -469 47 -444 c 1,30,-1
 79 -299 l 1,0,1
EndSplineSet
EndChar

StartChar: z
Encoding: 122 122 30
Width: 954
Flags: HW
LayerCount: 2
Fore
SplineSet
86 148 m 1,0,-1
 646 852 l 1,1,-1
 106 852 l 1,2,-1
 106 1000 l 1,3,-1
 858 1000 l 1,4,-1
 858 852 l 1,5,-1
 298 148 l 1,6,-1
 876 148 l 1,7,-1
 876 0 l 1,8,-1
 86 0 l 1,9,-1
 86 148 l 1,0,-1
EndSplineSet
EndChar

StartChar: A
Encoding: 65 65 31
Width: 1430
Flags: HW
LayerCount: 2
Fore
SplineSet
687 1416 m 1,0,-1
 792 1416 l 1,1,-1
 1405 0 l 1,2,-1
 1203 0 l 1,3,-1
 1069 310 l 1,4,-1
 360 310 l 1,5,-1
 215 0 l 1,6,-1
 25 0 l 1,7,-1
 687 1416 l 1,0,-1
997 478 m 1,8,-1
 869 775 l 2,9,10
 845 831 845 831 822.5 891 c 2,11,-1
 782 1003.5 l 1,12,13
 744 1114.33 744 1114.33 737 1154 c 1,14,-1
 725 1154 l 1,15,16
 716.68 1114.48 716.68 1114.48 688.84 1040.24 c 1,17,18
 638 910 l 1,19,20
 615 854 615 854 588 796 c 2,21,-1
 439 478 l 1,22,-1
 997 478 l 1,8,-1
EndSplineSet
Position2: "'cpsp' Capital Spacing in Latin lookup 0 subtable" dx=16 dy=0 dh=32 dv=0
EndChar

StartChar: B
Encoding: 66 66 32
Width: 1520
Flags: HW
LayerCount: 2
Fore
SplineSet
184 1416 m 1,0,-1
 705 1416 l 2,1,2
 958.438 1416 958.438 1416 1092 1353.5 c 0,3,4
 1263 1273.48 1263 1273.48 1263 1075 c 0,5,6
 1263 988.547 1263 988.547 1202.5 907.5 c 0,7,8
 1147.35 833.622 1147.35 833.622 1076 812 c 1,9,10
 1218.84 785.473 1218.84 785.473 1305 687 c 0,11,12
 1393 586.429 1393 586.429 1393 441 c 0,13,14
 1393 132.575 1393 132.575 1058 38.5 c 0,15,16
 920.902 7.42021e-06 920.902 7.42021e-06 737 0 c 2,17,-1
 184 0 l 1,18,-1
 184 1416 l 1,0,-1
723 866 m 2,19,20
 949.105 866 949.105 866 1035 968 c 0,21,22
 1067 1006 1067 1006 1067 1067 c 128,-1,23
 1067 1128 1067 1128 1029.5 1164.5 c 128,-1,24
 992 1201 992 1201 934.5 1219.5 c 0,25,26
 845.919 1248 845.919 1248 676 1248 c 2,27,-1
 369 1248 l 1,28,-1
 369 866 l 1,29,-1
 723 866 l 2,19,20
1197 429 m 0,30,31
 1197 698 1197 698 756 698 c 2,32,-1
 369 698 l 1,33,-1
 369 168 l 1,34,-1
 762 168 l 2,35,36
 1064.65 168 1064.65 168 1159.5 297 c 0,37,38
 1197 348 1197 348 1197 429 c 0,30,31
EndSplineSet
Position2: "'cpsp' Capital Spacing in Latin lookup 0 subtable" dx=16 dy=0 dh=32 dv=0
EndChar

StartChar: C
Encoding: 67 67 33
Width: 1492
Flags: HW
LayerCount: 2
Fore
SplineSet
1329 1122 m 1,0,1
 1163.33 1270 1163.33 1270 902 1270 c 0,2,3
 665.116 1270 665.116 1270 499.5 1114 c 0,4,5
 333 957.168 333 957.168 333 723 c 0,6,7
 333 480.7 333 480.7 505 313 c 0,8,9
 676.282 146 676.282 146 920 146 c 0,10,11
 1097.38 146 1097.38 146 1273 235.5 c 0,12,13
 1325 262 1325 262 1363 293 c 1,14,-1
 1435 155 l 1,15,16
 1287.54 29.0468 1287.54 29.0468 1056 -8 c 0,17,18
 981 -20 981 -20 902 -20 c 0,19,20
 745 -20 745 -20 606 32.5 c 128,-1,21
 467 85 467 85 362.5 179.5 c 128,-1,22
 258 274 258 274 197.5 405 c 128,-1,23
 137 536 137 536 137 669 c 128,-1,24
 137 802 137 802 164.5 899.5 c 128,-1,25
 192 997 192 997 243 1079.5 c 128,-1,26
 294 1162 294 1162 365 1228 c 128,-1,27
 436 1294 436 1294 523 1340 c 0,28,29
 704.565 1436 704.565 1436 920 1436 c 0,30,31
 1211.31 1436 1211.31 1436 1422 1270 c 1,32,-1
 1329 1122 l 1,0,1
EndSplineSet
Position2: "'cpsp' Capital Spacing in Latin lookup 0 subtable" dx=16 dy=0 dh=32 dv=0
EndChar

StartChar: D
Encoding: 68 68 34
Width: 1600
Flags: HW
LayerCount: 2
Fore
SplineSet
184 1416 m 1,0,-1
 765 1416 l 2,1,2
 1089.5 1416 1089.5 1416 1288.5 1233.5 c 0,3,4
 1493 1045.95 1493 1045.95 1493 731 c 0,5,6
 1493 398.05 1493 398.05 1283 197.5 c 0,7,8
 1076.19 9.71709e-06 1076.19 9.71709e-06 737 0 c 2,9,-1
 184 0 l 1,10,-1
 184 1416 l 1,0,-1
762 168 m 2,11,12
 1011.25 168 1011.25 168 1155 318 c 0,13,14
 1297 466.174 1297 466.174 1297 719 c 0,15,16
 1297 962.73 1297 962.73 1140 1107 c 0,17,18
 986.559 1248 986.559 1248 736 1248 c 2,19,-1
 369 1248 l 1,20,-1
 369 168 l 1,21,-1
 762 168 l 2,11,12
EndSplineSet
Position2: "'cpsp' Capital Spacing in Latin lookup 0 subtable" dx=16 dy=0 dh=32 dv=0
EndChar

StartChar: E
Encoding: 69 69 35
Width: 1370
Flags: HW
LayerCount: 2
Fore
SplineSet
184 1416 m 1,0,-1
 1241 1416 l 1,1,-1
 1241 1248 l 1,2,-1
 369 1248 l 1,3,-1
 369 866 l 1,4,-1
 1146 866 l 1,5,-1
 1146 698 l 1,6,-1
 369 698 l 1,7,-1
 369 168 l 1,8,-1
 1261 168 l 1,9,-1
 1261 0 l 1,10,-1
 184 0 l 1,11,-1
 184 1416 l 1,0,-1
EndSplineSet
Position2: "'cpsp' Capital Spacing in Latin lookup 0 subtable" dx=16 dy=0 dh=32 dv=0
EndChar

StartChar: F
Encoding: 70 70 36
Width: 1248
Flags: HW
LayerCount: 2
Fore
SplineSet
184 1416 m 1,0,-1
 1141 1416 l 1,1,-1
 1141 1248 l 1,2,-1
 369 1248 l 1,3,-1
 369 646 l 1,4,-1
 1066 646 l 1,5,-1
 1066 478 l 1,6,-1
 369 478 l 1,7,-1
 369 0 l 1,8,-1
 184 0 l 1,9,-1
 184 1416 l 1,0,-1
EndSplineSet
Position2: "'cpsp' Capital Spacing in Latin lookup 0 subtable" dx=16 dy=0 dh=32 dv=0
EndChar

StartChar: G
Encoding: 71 71 37
Width: 1704
Flags: HW
LayerCount: 2
Fore
SplineSet
163 494.5 m 128,-1,1
 137 588 137 588 137 695 c 128,-1,2
 137 802 137 802 164.5 899.5 c 128,-1,3
 192 997 192 997 243 1079.5 c 128,-1,4
 294 1162 294 1162 365 1228 c 128,-1,5
 436 1294 436 1294 523 1340 c 0,6,7
 704.565 1436 704.565 1436 920 1436 c 0,8,9
 1235.94 1436 1235.94 1436 1443 1260 c 1,10,-1
 1339 1118 l 1,11,12
 1163.97 1270 1163.97 1270 902 1270 c 0,13,14
 665.116 1270 665.116 1270 499.5 1114 c 0,15,16
 333 957.168 333 957.168 333 723 c 0,17,18
 333 468.316 333 468.316 497.5 307 c 0,19,20
 661.678 146 661.678 146 917 146 c 0,21,22
 1110.16 146 1110.16 146 1262 259 c 0,23,24
 1305 291 1305 291 1335 326 c 1,25,-1
 1335 479 l 1,26,-1
 844 479 l 1,27,-1
 844 647 l 1,28,-1
 1520 647 l 1,29,-1
 1520 0 l 1,30,-1
 1335 0 l 1,31,-1
 1335 137 l 1,32,33
 1221.08 34.4693 1221.08 34.4693 1029.5 -5.5 c 0,34,35
 960 -20 960 -20 867 -20 c 128,-1,36
 774 -20 774 -20 678 3.5 c 128,-1,37
 582 27 582 27 500 71.5 c 128,-1,38
 418 116 418 116 350.5 179 c 128,-1,39
 283 242 283 242 236 321.5 c 128,-1,0
 189 401 189 401 163 494.5 c 128,-1,1
EndSplineSet
Position2: "'cpsp' Capital Spacing in Latin lookup 0 subtable" dx=16 dy=0 dh=32 dv=0
EndChar

StartChar: H
Encoding: 72 72 38
Width: 1607
Flags: HW
LayerCount: 2
Fore
SplineSet
184 1416 m 1,0,-1
 369 1416 l 1,1,-1
 369 647 l 1,2,-1
 1238 647 l 1,3,-1
 1238 1416 l 1,4,-1
 1423 1416 l 1,5,-1
 1423 0 l 1,6,-1
 1238 0 l 1,7,-1
 1238 479 l 1,8,-1
 369 479 l 1,9,-1
 369 0 l 1,10,-1
 184 0 l 1,11,-1
 184 1416 l 1,0,-1
EndSplineSet
Position2: "'cpsp' Capital Spacing in Latin lookup 0 subtable" dx=16 dy=0 dh=32 dv=0
EndChar

StartChar: I
Encoding: 73 73 39
Width: 553
Flags: HW
LayerCount: 2
Fore
SplineSet
184 1416 m 1,0,-1
 369 1416 l 1,1,-1
 369 0 l 1,2,-1
 184 0 l 1,3,-1
 184 1416 l 1,0,-1
EndSplineSet
Position2: "'cpsp' Capital Spacing in Latin lookup 0 subtable" dx=16 dy=0 dh=32 dv=0
EndChar

StartChar: J
Encoding: 74 74 40
Width: 1190
Flags: HW
LayerCount: 2
Fore
SplineSet
540 146 m 0,0,1
 821 146 821 146 821 502 c 2,2,-1
 821 1416 l 1,3,-1
 1006 1416 l 1,4,-1
 1006 522 l 2,5,6
 1006 129.935 1006 129.935 735 18 c 0,7,8
 643 -20 643 -20 531.5 -20 c 128,-1,9
 420 -20 420 -20 340.5 20 c 128,-1,10
 261 60 261 60 205.5 127.5 c 0,11,12
 90 267.973 90 267.973 90 473 c 1,13,-1
 270 498 l 1,14,15
 270 354.5 270 354.5 338 255.5 c 0,16,17
 413.212 146 413.212 146 540 146 c 0,0,1
EndSplineSet
Position2: "'cpsp' Capital Spacing in Latin lookup 0 subtable" dx=16 dy=0 dh=32 dv=0
EndChar

StartChar: K
Encoding: 75 75 41
Width: 1404
Flags: HW
LayerCount: 2
Fore
SplineSet
184 1416 m 1,0,-1
 374 1416 l 1,1,-1
 374 711 l 1,2,-1
 1109 1416 l 1,3,-1
 1348 1416 l 1,4,-1
 578 682 l 1,5,-1
 1381 0 l 1,6,-1
 1089 0 l 1,7,-1
 374 625 l 1,8,-1
 374 0 l 1,9,-1
 184 0 l 1,10,-1
 184 1416 l 1,0,-1
EndSplineSet
Position2: "'cpsp' Capital Spacing in Latin lookup 0 subtable" dx=16 dy=0 dh=32 dv=0
EndChar

StartChar: L
Encoding: 76 76 42
Width: 1208
Flags: HW
LayerCount: 2
Fore
SplineSet
184 1416 m 1,0,-1
 369 1416 l 1,1,-1
 369 168 l 1,2,-1
 1141 168 l 1,3,-1
 1141 0 l 1,4,-1
 184 0 l 1,5,-1
 184 1416 l 1,0,-1
EndSplineSet
Position2: "'cpsp' Capital Spacing in Latin lookup 0 subtable" dx=16 dy=0 dh=32 dv=0
EndChar

StartChar: M
Encoding: 77 77 43
Width: 1947
Flags: HW
LayerCount: 2
Fore
SplineSet
287 1415 m 1,0,-1
 342 1415 l 1,1,-1
 967 730 l 1,2,-1
 1591 1415 l 1,3,-1
 1650 1415 l 1,4,-1
 1770 0 l 1,5,-1
 1589 0 l 1,6,-1
 1498 1065 l 1,7,-1
 969 479 l 1,8,-1
 949 479 l 1,9,-1
 436 1056 l 1,10,-1
 356 0 l 1,11,-1
 177 0 l 1,12,-1
 287 1415 l 1,0,-1
EndSplineSet
Position2: "'cpsp' Capital Spacing in Latin lookup 0 subtable" dx=16 dy=0 dh=32 dv=0
EndChar

StartChar: N
Encoding: 78 78 44
Width: 1607
Flags: HW
LayerCount: 2
Fore
SplineSet
184 1416 m 1,0,-1
 346 1416 l 1,1,-1
 1258 298 l 1,2,-1
 1258 1416 l 1,3,-1
 1423 1416 l 1,4,-1
 1423 0 l 1,5,-1
 1268 0 l 1,6,-1
 349 1126 l 1,7,-1
 349 0 l 1,8,-1
 184 0 l 1,9,-1
 184 1416 l 1,0,-1
EndSplineSet
Position2: "'cpsp' Capital Spacing in Latin lookup 0 subtable" dx=16 dy=0 dh=32 dv=0
EndChar

StartChar: O
Encoding: 79 79 45
Width: 1822
Flags: HW
LayerCount: 2
Fore
SplineSet
197.5 405 m 128,-1,1
 137 536 137 536 137 669 c 128,-1,2
 137 802 137 802 164.5 899.5 c 128,-1,3
 192 997 192 997 243 1079.5 c 128,-1,4
 294 1162 294 1162 365 1228 c 128,-1,5
 436 1294 436 1294 523 1340 c 0,6,7
 704.565 1436 704.565 1436 920 1436 c 0,8,9
 1126.27 1436 1126.27 1436 1304 1344 c 0,10,11
 1477.39 1254.24 1477.39 1254.24 1579.5 1093.5 c 0,12,13
 1685 927.416 1685 927.416 1685 723 c 0,14,15
 1685 399.944 1685 399.944 1457 188 c 0,16,17
 1314.44 55.4837 1314.44 55.4837 1111.5 5 c 0,18,19
 1011 -20 1011 -20 878 -20 c 128,-1,20
 745 -20 745 -20 606 32.5 c 128,-1,21
 467 85 467 85 362.5 179.5 c 128,-1,0
 258 274 258 274 197.5 405 c 128,-1,1
377.5 941 m 128,-1,23
 333 841 333 841 333 721 c 128,-1,24
 333 601 333 601 379 496 c 128,-1,25
 425 391 425 391 505 313 c 0,26,27
 676.282 146 676.282 146 920 146 c 0,28,29
 1157.45 146 1157.45 146 1322 302 c 0,30,31
 1489 460.325 1489 460.325 1489 693 c 0,32,33
 1489 850.711 1489 850.711 1409 986.5 c 0,34,35
 1333.79 1114.16 1333.79 1114.16 1198 1192.5 c 0,36,37
 1063.67 1270 1063.67 1270 923.833 1270 c 128,-1,38
 784 1270 784 1270 680.5 1228.5 c 128,-1,39
 577 1187 577 1187 499.5 1114 c 128,-1,22
 422 1041 422 1041 377.5 941 c 128,-1,23
EndSplineSet
Position2: "'cpsp' Capital Spacing in Latin lookup 0 subtable" dx=16 dy=0 dh=32 dv=0
EndChar

StartChar: P
Encoding: 80 80 46
Width: 1470
Flags: HW
LayerCount: 2
Fore
SplineSet
184 1416 m 1,0,-1
 745 1416 l 2,1,2
 1029 1416 1029 1416 1199 1288.5 c 0,3,4
 1383 1150.5 1383 1150.5 1383 891 c 0,5,6
 1383 620.511 1383 620.511 1189 461 c 0,7,8
 1005.35 310 1005.35 310 717 310 c 2,9,-1
 369 310 l 1,10,-1
 369 0 l 1,11,-1
 184 0 l 1,12,-1
 184 1416 l 1,0,-1
742 478 m 2,13,14
 945.921 478 945.921 478 1063.5 579.5 c 0,15,16
 1187 686.111 1187 686.111 1187 879 c 0,17,18
 1187 1063.97 1187 1063.97 1049 1161 c 0,19,20
 925.267 1248 925.267 1248 716 1248 c 2,21,-1
 369 1248 l 1,22,-1
 369 478 l 1,23,-1
 742 478 l 2,13,14
EndSplineSet
Position2: "'cpsp' Capital Spacing in Latin lookup 0 subtable" dx=16 dy=0 dh=32 dv=0
EndChar

StartChar: Q
Encoding: 81 81 47
Width: 1823
Flags: HW
LayerCount: 2
Fore
SplineSet
188 427 m 128,-1,1
 137 549 137 549 137 675.5 c 128,-1,2
 137 802 137 802 164.5 899.5 c 128,-1,3
 192 997 192 997 243 1079.5 c 128,-1,4
 294 1162 294 1162 365 1228 c 128,-1,5
 436 1294 436 1294 523 1340 c 0,6,7
 704.565 1436 704.565 1436 920 1436 c 0,8,9
 1126.27 1436 1126.27 1436 1304 1344 c 0,10,11
 1477.39 1254.24 1477.39 1254.24 1579.5 1093.5 c 0,12,13
 1685 927.416 1685 927.416 1685 723 c 0,14,15
 1685 443.527 1685 443.527 1509.5 242.5 c 0,16,17
 1338.73 46.8887 1338.73 46.8887 1068 -4 c 1,18,-1
 1419 -246 l 1,19,-1
 1219 -329 l 1,20,-1
 798 -13 l 1,21,22
 516.879 19.3593 516.879 19.3593 328.5 213 c 0,23,0
 239 305 239 305 188 427 c 128,-1,1
377.5 941 m 128,-1,25
 333 841 333 841 333 721 c 128,-1,26
 333 601 333 601 379 496 c 128,-1,27
 425 391 425 391 505 313 c 0,28,29
 676.282 146 676.282 146 920 146 c 0,30,31
 1157.45 146 1157.45 146 1322 302 c 0,32,33
 1489 460.325 1489 460.325 1489 693 c 0,34,35
 1489 850.711 1489 850.711 1409 986.5 c 0,36,37
 1333.79 1114.16 1333.79 1114.16 1198 1192.5 c 0,38,39
 1063.67 1270 1063.67 1270 923.833 1270 c 128,-1,40
 784 1270 784 1270 680.5 1228.5 c 128,-1,41
 577 1187 577 1187 499.5 1114 c 128,-1,24
 422 1041 422 1041 377.5 941 c 128,-1,25
EndSplineSet
Position2: "'cpsp' Capital Spacing in Latin lookup 0 subtable" dx=16 dy=0 dh=32 dv=0
EndChar

StartChar: R
Encoding: 82 82 48
Width: 1550
Flags: HW
LayerCount: 2
Fore
SplineSet
1423 980 m 0,0,1
 1423 665.462 1423 665.462 1133 545 c 1,2,-1
 1402 0 l 1,3,-1
 1187 0 l 1,4,-1
 944 493 l 1,5,6
 845 478 845 478 737 478 c 2,7,-1
 369 478 l 1,8,-1
 369 0 l 1,9,-1
 184 0 l 1,10,-1
 184 1416 l 1,11,-1
 765 1416 l 2,12,13
 1079.17 1416 1079.17 1416 1234.5 1330 c 0,14,15
 1423 1225.63 1423 1225.63 1423 980 c 0,0,1
762 646 m 2,16,17
 985.861 646 985.861 646 1093.5 708 c 0,18,19
 1227 784.896 1227 784.896 1227 968 c 0,20,21
 1227 1205.62 1227 1205.62 919 1238.5 c 0,22,23
 830 1248 830 1248 736 1248 c 2,24,-1
 369 1248 l 1,25,-1
 369 646 l 1,26,-1
 762 646 l 2,16,17
EndSplineSet
Position2: "'cpsp' Capital Spacing in Latin lookup 0 subtable" dx=16 dy=0 dh=32 dv=0
EndChar

StartChar: S
Encoding: 83 83 49
Width: 1459
Flags: HW
LayerCount: 2
Fore
SplineSet
223 319 m 1,0,1
 409.065 199.387 409.065 199.387 601 161 c 0,2,3
 666 148 666 148 733 148 c 128,-1,4
 800 148 800 148 871.5 160.5 c 128,-1,5
 943 173 943 173 998.5 202.5 c 0,6,7
 1122 268.144 1122 268.144 1122 405 c 0,8,9
 1122 545.829 1122 545.829 914.5 601.5 c 0,10,11
 853 618 853 618 783.5 631 c 2,12,-1
 641 656.5 l 1,13,14
 367.793 703.282 367.793 703.282 260 793.5 c 0,15,16
 160 877.196 160 877.196 160 1018 c 0,17,18
 160 1209.67 160 1209.67 343.5 1329 c 0,19,20
 508.038 1436 508.038 1436 731 1436 c 0,21,22
 944.878 1436 944.878 1436 1116.5 1366.5 c 0,23,24
 1177 1342 1177 1342 1243 1306 c 1,25,-1
 1175 1143 l 1,26,27
 1029.76 1229.52 1029.76 1229.52 833 1256.5 c 0,28,29
 771 1265 771 1265 713 1265 c 256,30,31
 580 1265 580 1265 478 1214 c 0,32,33
 359 1154.5 359 1154.5 359 1048 c 0,34,35
 359 935.684 359 935.684 510 883.5 c 0,36,37
 578 860 578 860 664.5 845 c 2,38,-1
 841.5 813.5 l 2,39,40
 1066.54 772.47 1066.54 772.47 1153.77 719.235 c 128,-1,41
 1241 666 1241 666 1282.5 600.5 c 128,-1,42
 1324 535 1324 535 1324 426.5 c 128,-1,43
 1324 318 1324 318 1273 232 c 128,-1,44
 1222 146 1222 146 1137 89.5 c 0,45,46
 970.761 -21 970.761 -21 714 -21 c 0,47,48
 474.059 -21 474.059 -21 263 83 c 0,49,50
 194 117 194 117 135 161 c 1,51,-1
 223 319 l 1,0,1
EndSplineSet
Position2: "'cpsp' Capital Spacing in Latin lookup 0 subtable" dx=16 dy=0 dh=32 dv=0
EndChar

StartChar: T
Encoding: 84 84 50
Width: 1383
Flags: HW
LayerCount: 2
Fore
SplineSet
599 1248 m 1,0,-1
 67 1248 l 1,1,-1
 67 1416 l 1,2,-1
 1316 1416 l 1,3,-1
 1316 1248 l 1,4,-1
 784 1248 l 1,5,-1
 784 0 l 1,6,-1
 599 0 l 1,7,-1
 599 1248 l 1,0,-1
EndSplineSet
Position2: "'cpsp' Capital Spacing in Latin lookup 0 subtable" dx=16 dy=0 dh=32 dv=0
EndChar

StartChar: U
Encoding: 85 85 51
Width: 1592
Flags: HW
LayerCount: 2
Fore
SplineSet
153 1416 m 1,0,-1
 338 1416 l 1,1,-1
 338 683 l 2,2,3
 338 296.938 338 296.938 595 184.5 c 0,4,5
 683 146 683 146 803 146 c 128,-1,6
 923 146 923 146 1007.5 181 c 128,-1,7
 1092 216 1092 216 1147 281.5 c 0,8,9
 1254 408.927 1254 408.927 1254 653 c 2,10,-1
 1254 1416 l 1,11,-1
 1439 1416 l 1,12,-1
 1439 683 l 2,13,14
 1439 173.604 1439 173.604 1072.5 28.5 c 0,15,16
 950 -20 950 -20 790 -20 c 128,-1,17
 630 -20 630 -20 511.5 26.5 c 128,-1,18
 393 73 393 73 313.5 160 c 0,19,20
 153 335.642 153 335.642 153 653 c 2,21,-1
 153 1416 l 1,0,-1
EndSplineSet
Position2: "'cpsp' Capital Spacing in Latin lookup 0 subtable" dx=16 dy=0 dh=32 dv=0
EndChar

StartChar: V
Encoding: 86 86 52
Width: 1463
Flags: HW
LayerCount: 2
Fore
SplineSet
25 1416 m 1,0,-1
 232 1416 l 1,1,-1
 600 603 l 2,2,3
 625 547 625 547 646.5 491.5 c 0,4,5
 693.598 368.556 693.598 368.556 720 291 c 1,6,-1
 729 291 l 1,7,8
 743 336 743 336 759.5 381.5 c 2,9,-1
 796.5 480.5 l 2,10,11
 817 534 817 534 843 590 c 2,12,-1
 1217 1416 l 1,13,-1
 1413 1416 l 1,14,-1
 763 -20 l 1,15,-1
 675 -20 l 1,16,-1
 25 1416 l 1,0,-1
EndSplineSet
Position2: "'cpsp' Capital Spacing in Latin lookup 0 subtable" dx=16 dy=0 dh=32 dv=0
EndChar

StartChar: W
Encoding: 87 87 53
Width: 2118
Flags: HW
LayerCount: 2
Fore
SplineSet
47 1416 m 1,0,-1
 262 1416 l 1,1,2
 574.354 641.06 574.354 641.06 591.677 595.03 c 0,3,4
 632.885 483.166 632.885 483.166 646.442 443.083 c 2,5,6
 671 372 l 1,7,-1
 680 372 l 1,8,9
 693 419 693 419 708.5 468 c 2,10,11
 742.5 574.5 l 2,12,13
 761 632 761 632 784 695 c 2,14,-1
 1043 1416 l 1,15,-1
 1100 1416 l 1,16,-1
 1367 710 l 1,17,-1
 1482 372 l 1,18,-1
 1491 372 l 1,19,-1
 1562 600.5 l 2,20,21
 1581 660 1581 660 1601 713 c 2,22,-1
 1856 1416 l 1,23,-1
 2071 1416 l 1,24,-1
 1513 -20 l 1,25,-1
 1456 -20 l 1,26,-1
 1152 782 l 2,27,28
 1139 814 1139 814 1125.5 855 c 2,29,-1
 1072 1020 l 1,30,-1
 1066 1020 l 1,31,-1
 1040 933 l 2,32,33
 1029 896 1029 896 1015.5 855.5 c 2,34,-1
 702 -20 l 1,35,-1
 645 -20 l 1,36,-1
 47 1416 l 1,0,-1
EndSplineSet
Position2: "'cpsp' Capital Spacing in Latin lookup 0 subtable" dx=16 dy=0 dh=32 dv=0
EndChar

StartChar: X
Encoding: 88 88 54
Width: 1443
Flags: HW
LayerCount: 2
Fore
SplineSet
597 714 m 1,0,-1
 47 1416 l 1,1,-1
 290 1416 l 1,2,-1
 718 869 l 1,3,-1
 1143 1416 l 1,4,-1
 1364 1416 l 1,5,-1
 829 728 l 1,6,-1
 1400 0 l 1,7,-1
 1157 0 l 1,8,-1
 708 572 l 1,9,-1
 264 0 l 1,10,-1
 43 0 l 1,11,-1
 597 714 l 1,0,-1
EndSplineSet
Position2: "'cpsp' Capital Spacing in Latin lookup 0 subtable" dx=16 dy=0 dh=32 dv=0
EndChar

StartChar: Y
Encoding: 89 89 55
Width: 1291
Flags: HW
LayerCount: 2
Fore
SplineSet
559 604 m 1,0,-1
 37 1416 l 1,1,-1
 240 1416 l 1,2,-1
 653 769 l 1,3,-1
 1063 1416 l 1,4,-1
 1254 1416 l 1,5,-1
 744 607 l 1,6,-1
 744 0 l 1,7,-1
 559 0 l 1,8,-1
 559 604 l 1,0,-1
EndSplineSet
Position2: "'cpsp' Capital Spacing in Latin lookup 0 subtable" dx=16 dy=0 dh=32 dv=0
EndChar

StartChar: Z
Encoding: 90 90 56
Width: 1318
Flags: HW
LayerCount: 2
Fore
SplineSet
107 168 m 1,0,-1
 980 1249 l 1,1,-1
 107 1249 l 1,2,-1
 107 1417 l 1,3,-1
 1211 1417 l 1,4,-1
 1211 1249 l 1,5,-1
 338 168 l 1,6,-1
 1211 168 l 1,7,-1
 1211 0 l 1,8,-1
 107 0 l 1,9,-1
 107 168 l 1,0,-1
EndSplineSet
Position2: "'cpsp' Capital Spacing in Latin lookup 0 subtable" dx=16 dy=0 dh=32 dv=0
EndChar

StartChar: ampersand
Encoding: 38 38 57
Width: 1535
Flags: HW
LayerCount: 2
Fore
SplineSet
1099 168 m 1,0,1
 914.125 -19 914.125 -19 645 -19 c 0,2,3
 427.627 -19 427.627 -19 289 82 c 0,4,5
 137 192.743 137 192.743 137 387 c 0,6,7
 137 642.708 137 642.708 409 808 c 1,8,9
 321 937.905 321 937.905 321 1034.45 c 128,-1,10
 321 1131 321 1131 352 1205 c 128,-1,11
 383 1279 383 1279 438.5 1330.5 c 0,12,13
 552.194 1436 552.194 1436 743 1436 c 0,14,15
 956.437 1436 956.437 1436 1125 1300 c 1,16,-1
 1032 1152 l 1,17,18
 935.964 1236.03 935.964 1236.03 804.5 1262 c 0,19,20
 764 1270 764 1270 725 1270 c 0,21,22
 627 1270 627 1270 572 1217.5 c 128,-1,23
 517 1165 517 1165 517 1067 c 0,24,25
 517 906.435 517 906.435 938 549.5 c 1,26,-1
 1077 434 l 1,27,28
 1156 601.875 1156 601.875 1156 812 c 1,29,-1
 1343 814 l 1,30,31
 1343 538.419 1343 538.419 1217 323 c 1,32,-1
 1496 112 l 1,33,-1
 1373 -29 l 1,34,-1
 1099 168 l 1,0,1
965 270 m 1,35,36
 664.678 505.453 664.678 505.453 514 676 c 1,37,38
 372.603 597.78 372.603 597.78 343.5 498 c 0,39,40
 333 462 333 462 333 408 c 128,-1,41
 333 354 333 354 361 304 c 128,-1,42
 389 254 389 254 435 219 c 0,43,44
 529.629 147 529.629 147 643.314 147 c 0,45,46
 839.842 147 839.842 147 965 270 c 1,35,36
EndSplineSet
Position2: "'cpsp' Capital Spacing in Latin lookup 0 subtable" dx=16 dy=0 dh=32 dv=0
EndChar

StartChar: period
Encoding: 46 46 58
Width: 527
Flags: HW
LayerCount: 2
Fore
SplineSet
192 21 m 128,-1,1
 158 55 158 55 158 111 c 128,-1,2
 158 167 158 167 192 200.5 c 128,-1,3
 226 234 226 234 282 234 c 128,-1,4
 338 234 338 234 372 200.5 c 128,-1,5
 406 167 406 167 406 111 c 128,-1,6
 406 55 406 55 372 21 c 128,-1,7
 338 -13 338 -13 282 -13 c 128,-1,0
 226 -13 226 -13 192 21 c 128,-1,1
EndSplineSet
EndChar

StartChar: comma
Encoding: 44 44 59
Width: 527
Flags: HW
LayerCount: 2
Fore
SplineSet
211 32 m 1,0,1
 159 65.6471 159 65.6471 159 122 c 0,2,3
 159 198.8 159 198.8 235.5 226 c 0,4,5
 258 234 258 234 284 234 c 128,-1,6
 310 234 310 234 333 224 c 128,-1,7
 356 214 356 214 372.5 197 c 0,8,9
 407 161.455 407 161.455 407 118.227 c 128,-1,10
 407 75 407 75 396.5 37.5 c 128,-1,11
 386 0 386 0 369 -38 c 128,-1,12
 352 -76 352 -76 330.5 -113 c 128,-1,13
 309 -150 309 -150 286 -181.5 c 0,14,15
 236.197 -249.709 236.197 -249.709 203 -279 c 1,16,-1
 112 -228 l 1,17,18
 164.784 -154.915 164.784 -154.915 198.5 -34.5 c 0,19,20
 209 3 209 3 211 32 c 1,0,1
EndSplineSet
EndChar

StartChar: colon
Encoding: 58 58 60
Width: 527
Flags: HW
LayerCount: 2
Fore
SplineSet
372 601 m 128,-1,1
 338 567 338 567 282 567 c 128,-1,2
 226 567 226 567 192 601 c 128,-1,3
 158 635 158 635 158 691 c 128,-1,4
 158 747 158 747 192 780.5 c 128,-1,5
 226 814 226 814 282 814 c 128,-1,6
 338 814 338 814 372 780.5 c 128,-1,7
 406 747 406 747 406 691 c 128,-1,0
 406 635 406 635 372 601 c 128,-1,1
192 21 m 128,-1,9
 158 55 158 55 158 111 c 128,-1,10
 158 167 158 167 192 200.5 c 128,-1,11
 226 234 226 234 282 234 c 128,-1,12
 338 234 338 234 372 200.5 c 128,-1,13
 406 167 406 167 406 111 c 128,-1,14
 406 55 406 55 372 21 c 128,-1,15
 338 -13 338 -13 282 -13 c 128,-1,8
 226 -13 226 -13 192 21 c 128,-1,9
EndSplineSet
EndChar

StartChar: semicolon
Encoding: 59 59 61
Width: 527
Flags: HW
LayerCount: 2
Fore
SplineSet
372 601 m 128,-1,1
 338 567 338 567 282 567 c 128,-1,2
 226 567 226 567 192 601 c 128,-1,3
 158 635 158 635 158 691 c 128,-1,4
 158 747 158 747 192 780.5 c 128,-1,5
 226 814 226 814 282 814 c 128,-1,6
 338 814 338 814 372 780.5 c 128,-1,7
 406 747 406 747 406 691 c 128,-1,0
 406 635 406 635 372 601 c 128,-1,1
211 32 m 1,8,9
 159 65.6471 159 65.6471 159 122 c 0,10,11
 159 198.8 159 198.8 235.5 226 c 0,12,13
 258 234 258 234 284 234 c 128,-1,14
 310 234 310 234 333 224 c 128,-1,15
 356 214 356 214 372.5 197 c 0,16,17
 407 161.455 407 161.455 407 118.227 c 128,-1,18
 407 75 407 75 396.5 37.5 c 128,-1,19
 386 0 386 0 369 -38 c 128,-1,20
 352 -76 352 -76 330.5 -113 c 128,-1,21
 309 -150 309 -150 286 -181.5 c 0,22,23
 236.197 -249.709 236.197 -249.709 203 -279 c 1,24,-1
 112 -228 l 1,25,26
 164.784 -154.915 164.784 -154.915 198.5 -34.5 c 0,27,28
 209 3 209 3 211 32 c 1,8,9
EndSplineSet
EndChar

StartChar: exclam
Encoding: 33 33 62
Width: 602
Flags: HW
LayerCount: 2
Fore
SplineSet
199 1415 m 1,0,-1
 404 1415 l 1,1,-1
 374 410 l 1,2,-1
 229 410 l 1,3,-1
 199 1415 l 1,0,-1
211 21 m 128,-1,5
 177 55 177 55 177 111 c 128,-1,6
 177 167 177 167 211 200.5 c 128,-1,7
 245 234 245 234 301 234 c 128,-1,8
 357 234 357 234 391 200.5 c 128,-1,9
 425 167 425 167 425 111 c 128,-1,10
 425 55 425 55 391 21 c 128,-1,11
 357 -13 357 -13 301 -13 c 128,-1,4
 245 -13 245 -13 211 21 c 128,-1,5
EndSplineSet
EndChar

StartChar: question
Encoding: 63 63 64
Width: 1035
Flags: HW
LayerCount: 2
Fore
SplineSet
82 1342 m 1,0,1
 292.381 1436 292.381 1436 525 1436 c 0,2,3
 812.657 1436 812.657 1436 920 1291.5 c 0,4,5
 959 1239 959 1239 959 1168 c 128,-1,6
 959 1097 959 1097 935.5 1045.5 c 128,-1,7
 912 994 912 994 874 951 c 128,-1,8
 836 908 836 908 788.5 870.5 c 2,9,-1
 693.5 796 l 2,10,11
 570.813 700.434 570.813 700.434 534.407 645.217 c 0,12,13
 461.342 534.402 461.342 534.402 488 410 c 1,14,-1
 326 378 l 1,15,16
 286.958 596.636 286.958 596.636 429 756 c 0,17,18
 496.831 832.103 496.831 832.103 572.415 891.551 c 128,-1,19
 648 951 648 951 683.5 985.5 c 0,20,21
 763 1062.76 763 1062.76 763 1131 c 0,22,23
 763 1270 763 1270 507 1270 c 0,24,25
 387.643 1270 387.643 1270 207.5 1218 c 0,26,27
 159 1204 159 1204 126 1190 c 1,28,-1
 82 1342 l 1,0,1
351 21 m 128,-1,30
 317 55 317 55 317 111 c 128,-1,31
 317 167 317 167 351 200.5 c 128,-1,32
 385 234 385 234 441 234 c 128,-1,33
 497 234 497 234 531 200.5 c 128,-1,34
 565 167 565 167 565 111 c 128,-1,35
 565 55 565 55 531 21 c 128,-1,36
 497 -13 497 -13 441 -13 c 128,-1,29
 385 -13 385 -13 351 21 c 128,-1,30
EndSplineSet
EndChar

StartChar: guilsinglleft
Encoding: 8249 8249 66
Width: 702
Flags: HW
LayerCount: 2
Fore
SplineSet
107 531 m 1,0,-1
 532 944 l 1,1,-1
 635 846 l 1,2,-1
 337 518 l 1,3,-1
 629 204 l 1,4,-1
 530 98 l 1,5,-1
 107 471 l 1,6,-1
 107 531 l 1,0,-1
EndSplineSet
EndChar

StartChar: guillemotleft
Encoding: 171 171 68
Width: 1204
Flags: HW
LayerCount: 2
Fore
SplineSet
609 531 m 1,0,-1
 1034 944 l 1,1,-1
 1130 853 l 1,2,-1
 829 516 l 1,3,-1
 1125 198 l 1,4,-1
 1032 98 l 1,5,-1
 609 471 l 1,6,-1
 609 531 l 1,0,-1
113 531 m 1,7,-1
 538 944 l 1,8,-1
 634 853 l 1,9,-1
 333 516 l 1,10,-1
 629 198 l 1,11,-1
 536 98 l 1,12,-1
 113 471 l 1,13,-1
 113 531 l 1,7,-1
EndSplineSet
EndChar

StartChar: quoteleft
Encoding: 8216 8216 70
Width: 527
Flags: HW
LayerCount: 2
Fore
SplineSet
316 1250 m 1,0,1
 368 1216.35 368 1216.35 368 1160 c 0,2,3
 368 1083.2 368 1083.2 291.5 1056 c 0,4,5
 269 1048 269 1048 243 1048 c 128,-1,6
 217 1048 217 1048 194 1058 c 128,-1,7
 171 1068 171 1068 154.5 1085 c 0,8,9
 120 1120.55 120 1120.55 120 1163.77 c 128,-1,10
 120 1207 120 1207 130.5 1244.5 c 128,-1,11
 141 1282 141 1282 158 1320 c 128,-1,12
 175 1358 175 1358 196.5 1395 c 128,-1,13
 218 1432 218 1432 241 1463.5 c 0,14,15
 290.803 1531.71 290.803 1531.71 324 1561 c 1,16,-1
 415 1510 l 1,17,18
 364.5 1445.07 364.5 1445.07 328.5 1316.5 c 0,19,20
 318 1279 318 1279 316 1250 c 1,0,1
EndSplineSet
EndChar

StartChar: quoteright
Encoding: 8217 8217 71
Width: 527
Flags: HW
LayerCount: 2
Fore
SplineSet
211 1359 m 1,0,1
 159 1392.65 159 1392.65 159 1449 c 0,2,3
 159 1525.8 159 1525.8 235.5 1553 c 0,4,5
 258 1561 258 1561 284 1561 c 128,-1,6
 310 1561 310 1561 333 1551 c 128,-1,7
 356 1541 356 1541 372.5 1524 c 0,8,9
 407 1488.45 407 1488.45 407 1444.73 c 128,-1,10
 407 1401 407 1401 396.5 1364 c 128,-1,11
 386 1327 386 1327 369 1289 c 128,-1,12
 352 1251 352 1251 330.5 1214 c 128,-1,13
 309 1177 309 1177 286 1145.5 c 0,14,15
 236.197 1077.29 236.197 1077.29 203 1048 c 1,16,-1
 112 1099 l 1,17,18
 164.784 1172.09 164.784 1172.09 198.5 1292.5 c 0,19,20
 209 1330 209 1330 211 1359 c 1,0,1
EndSplineSet
EndChar

StartChar: quotedblleft
Encoding: 8220 8220 72
Width: 881
Flags: HW
LayerCount: 2
Fore
SplineSet
670 1125 m 1,0,1
 722 1091.35 722 1091.35 722 1035 c 0,2,3
 722 958.2 722 958.2 645.5 931 c 0,4,5
 623 923 623 923 597 923 c 128,-1,6
 571 923 571 923 548 933 c 128,-1,7
 525 943 525 943 508.5 960 c 0,8,9
 474 995.545 474 995.545 474 1039.27 c 128,-1,10
 474 1083 474 1083 484.5 1120 c 128,-1,11
 495 1157 495 1157 512 1195 c 128,-1,12
 529 1233 529 1233 550.5 1269.5 c 128,-1,13
 572 1306 572 1306 595 1338 c 0,14,15
 643.658 1405.7 643.658 1405.7 678 1436 c 1,16,-1
 769 1385 l 1,17,18
 718.5 1320.07 718.5 1320.07 682.5 1191.5 c 0,19,20
 672 1154 672 1154 670 1125 c 1,0,1
316 1125 m 1,21,22
 368 1091.35 368 1091.35 368 1035 c 0,23,24
 368 958.2 368 958.2 291.5 931 c 0,25,26
 269 923 269 923 243 923 c 128,-1,27
 217 923 217 923 194 933 c 128,-1,28
 171 943 171 943 154.5 960 c 0,29,30
 120 995.545 120 995.545 120 1039.27 c 128,-1,31
 120 1083 120 1083 130.5 1120 c 128,-1,32
 141 1157 141 1157 158 1195 c 128,-1,33
 175 1233 175 1233 196.5 1269.5 c 128,-1,34
 218 1306 218 1306 241 1338 c 0,35,36
 289.658 1405.7 289.658 1405.7 324 1436 c 1,37,-1
 415 1385 l 1,38,39
 364.5 1320.07 364.5 1320.07 328.5 1191.5 c 0,40,41
 318 1154 318 1154 316 1125 c 1,21,22
EndSplineSet
EndChar

StartChar: quotedblright
Encoding: 8221 8221 73
Width: 881
Flags: HW
LayerCount: 2
Fore
SplineSet
565 1234 m 1,0,1
 513 1267.65 513 1267.65 513 1324 c 0,2,3
 513 1400.8 513 1400.8 589.5 1428 c 0,4,5
 612 1436 612 1436 638 1436 c 128,-1,6
 664 1436 664 1436 687 1426 c 128,-1,7
 710 1416 710 1416 726.5 1399 c 0,8,9
 761 1363.45 761 1363.45 761 1319.73 c 128,-1,10
 761 1276 761 1276 750.5 1239 c 128,-1,11
 740 1202 740 1202 723 1164 c 128,-1,12
 706 1126 706 1126 684.5 1089.5 c 128,-1,13
 663 1053 663 1053 640 1021 c 0,14,15
 591.342 953.302 591.342 953.302 557 923 c 1,16,-1
 466 974 l 1,17,18
 518.784 1047.09 518.784 1047.09 552.5 1167.5 c 0,19,20
 563 1205 563 1205 565 1234 c 1,0,1
211 1234 m 1,21,22
 159 1267.65 159 1267.65 159 1324 c 0,23,24
 159 1400.8 159 1400.8 235.5 1428 c 0,25,26
 258 1436 258 1436 284 1436 c 128,-1,27
 310 1436 310 1436 333 1426 c 128,-1,28
 356 1416 356 1416 372.5 1399 c 0,29,30
 407 1363.45 407 1363.45 407 1319.73 c 128,-1,31
 407 1276 407 1276 396.5 1239 c 128,-1,32
 386 1202 386 1202 369 1164 c 128,-1,33
 352 1126 352 1126 330.5 1089.5 c 128,-1,34
 309 1053 309 1053 286 1021 c 0,35,36
 237.342 953.302 237.342 953.302 203 923 c 1,37,-1
 112 974 l 1,38,39
 164.784 1047.09 164.784 1047.09 198.5 1167.5 c 0,40,41
 209 1205 209 1205 211 1234 c 1,21,22
EndSplineSet
EndChar

StartChar: quotesinglbase
Encoding: 8218 8218 74
Width: 527
Flags: HW
LayerCount: 2
Fore
SplineSet
211 32 m 1,0,1
 159 65.6471 159 65.6471 159 122 c 0,2,3
 159 198.8 159 198.8 235.5 226 c 0,4,5
 258 234 258 234 284 234 c 128,-1,6
 310 234 310 234 333 224 c 128,-1,7
 356 214 356 214 372.5 197 c 0,8,9
 407 161.455 407 161.455 407 118.227 c 128,-1,10
 407 75 407 75 396.5 37.5 c 128,-1,11
 386 0 386 0 369 -38 c 128,-1,12
 352 -76 352 -76 330.5 -113 c 128,-1,13
 309 -150 309 -150 286 -181.5 c 0,14,15
 236.197 -249.709 236.197 -249.709 203 -279 c 1,16,-1
 112 -228 l 1,17,18
 164.784 -154.915 164.784 -154.915 198.5 -34.5 c 0,19,20
 209 3 209 3 211 32 c 1,0,1
EndSplineSet
EndChar

StartChar: quotedblbase
Encoding: 8222 8222 75
Width: 881
Flags: HW
LayerCount: 2
Fore
SplineSet
565 32 m 1,0,1
 513 65.6471 513 65.6471 513 122 c 0,2,3
 513 198.8 513 198.8 589.5 226 c 0,4,5
 612 234 612 234 638 234 c 128,-1,6
 664 234 664 234 687 224 c 128,-1,7
 710 214 710 214 726.5 197 c 0,8,9
 761 161.455 761 161.455 761 118.227 c 128,-1,10
 761 75 761 75 750.5 37.5 c 128,-1,11
 740 0 740 0 723 -38 c 128,-1,12
 706 -76 706 -76 684.5 -113 c 128,-1,13
 663 -150 663 -150 640 -181.5 c 0,14,15
 590.197 -249.709 590.197 -249.709 557 -279 c 1,16,-1
 466 -228 l 1,17,18
 518.784 -154.915 518.784 -154.915 552.5 -34.5 c 0,19,20
 563 3 563 3 565 32 c 1,0,1
211 32 m 1,21,22
 159 65.6471 159 65.6471 159 122 c 0,23,24
 159 198.8 159 198.8 235.5 226 c 0,25,26
 258 234 258 234 284 234 c 128,-1,27
 310 234 310 234 333 224 c 128,-1,28
 356 214 356 214 372.5 197 c 0,29,30
 407 161.455 407 161.455 407 118.227 c 128,-1,31
 407 75 407 75 396.5 37.5 c 128,-1,32
 386 0 386 0 369 -38 c 128,-1,33
 352 -76 352 -76 330.5 -113 c 128,-1,34
 309 -150 309 -150 286 -181.5 c 0,35,36
 236.197 -249.709 236.197 -249.709 203 -279 c 1,37,-1
 112 -228 l 1,38,39
 164.784 -154.915 164.784 -154.915 198.5 -34.5 c 0,40,41
 209 3 209 3 211 32 c 1,21,22
EndSplineSet
EndChar

StartChar: quotesingle
Encoding: 39 39 76
Width: 524
Flags: HW
LayerCount: 2
Fore
SplineSet
165 1416 m 1,0,-1
 359 1416 l 1,1,-1
 329 939 l 1,2,-1
 195 939 l 1,3,-1
 165 1416 l 1,0,-1
EndSplineSet
EndChar

StartChar: quotedbl
Encoding: 34 34 77
Width: 881
Flags: HW
LayerCount: 2
Fore
SplineSet
522 1417 m 1,0,-1
 716 1417 l 1,1,-1
 686 940 l 1,2,-1
 552 940 l 1,3,-1
 522 1417 l 1,0,-1
165 1417 m 1,4,-1
 359 1417 l 1,5,-1
 329 940 l 1,6,-1
 195 940 l 1,7,-1
 165 1417 l 1,4,-1
EndSplineSet
EndChar

StartChar: degree
Encoding: 176 176 78
Width: 738
Flags: HW
LayerCount: 2
Fore
SplineSet
368 856 m 256,0,1
 240.182 856 240.182 856 155.5 936.5 c 0,2,3
 69 1018.73 69 1018.73 69 1143 c 256,4,5
 69 1267.16 69 1267.16 156.5 1352.5 c 0,6,7
 242.114 1436 242.114 1436 370 1436 c 256,8,9
 496.766 1436 496.766 1436 582.5 1354.5 c 0,10,11
 669 1272.27 669 1272.27 669 1147 c 256,12,13
 669 1021.68 669 1021.68 581.5 938.5 c 0,14,15
 494.714 856 494.714 856 368 856 c 256,0,1
488.5 1022.5 m 128,-1,17
 532 1068 532 1068 532 1143 c 0,18,19
 532 1260.87 532 1260.87 435.5 1302 c 0,20,21
 405 1315 405 1315 368 1315 c 0,22,23
 293 1315 293 1315 249.5 1268.5 c 128,-1,24
 206 1222 206 1222 206 1165.5 c 128,-1,25
 206 1109 206 1109 217.5 1078 c 128,-1,26
 229 1047 229 1047 250.5 1024.5 c 0,27,28
 295.889 977 295.889 977 370.444 977 c 128,-1,16
 445 977 445 977 488.5 1022.5 c 128,-1,17
EndSplineSet
EndChar

StartChar: numbersign
Encoding: 35 35 79
Width: 1589
Flags: HW
LayerCount: 2
Fore
SplineSet
389 406 m 1,0,-1
 171 406 l 1,1,-1
 171 560 l 1,2,-1
 417 560 l 1,3,-1
 482 906 l 1,4,-1
 171 906 l 1,5,-1
 171 1060 l 1,6,-1
 510 1060 l 1,7,-1
 580 1435 l 1,8,-1
 733 1396 l 1,9,-1
 670 1060 l 1,10,-1
 1038 1060 l 1,11,-1
 1107 1435 l 1,12,-1
 1260 1397 l 1,13,-1
 1198 1060 l 1,14,-1
 1418 1060 l 1,15,-1
 1418 906 l 1,16,-1
 1170 906 l 1,17,-1
 1106 560 l 1,18,-1
 1418 560 l 1,19,-1
 1418 406 l 1,20,-1
 1078 406 l 1,21,-1
 1000 -19 l 1,22,-1
 847 20 l 1,23,-1
 918 406 l 1,24,-1
 549 406 l 1,25,-1
 470 -19 l 1,26,-1
 317 19 l 1,27,-1
 389 406 l 1,0,-1
946 560 m 1,28,-1
 1010 906 l 1,29,-1
 642 906 l 1,30,-1
 577 560 l 1,31,-1
 946 560 l 1,28,-1
EndSplineSet
EndChar

StartChar: zero
Encoding: 48 48 80
Width: 1662
Flags: HW
LayerCount: 2
Fore
SplineSet
137 696 m 0,0,1
 137 856 137 856 185.5 993 c 128,-1,2
 234 1130 234 1130 325 1228 c 0,3,4
 518.143 1436 518.143 1436 840 1436 c 0,5,6
 1151.11 1436 1151.11 1436 1339 1236.5 c 0,7,8
 1525 1039.01 1525 1039.01 1525 723 c 0,9,10
 1525 390.462 1525 390.462 1337 188 c 0,11,12
 1143.86 -20 1143.86 -20 822 -20 c 0,13,14
 511.444 -20 511.444 -20 322.5 179.5 c 0,15,16
 137 375.363 137 375.363 137 696 c 0,0,1
333 721 m 0,17,18
 333 601 333 601 366.5 496 c 128,-1,19
 400 391 400 391 465 313 c 0,20,21
 604.167 146 604.167 146 840 146 c 0,22,23
 1069.51 146 1069.51 146 1202 302 c 0,24,25
 1329 451.532 1329 451.532 1329 693 c 0,26,27
 1329 944.6 1329 944.6 1197 1103 c 0,28,29
 1057.83 1270 1057.83 1270 822 1270 c 0,30,31
 593.062 1270 593.062 1270 459.5 1114 c 0,32,33
 333 966.248 333 966.248 333 721 c 0,17,18
EndSplineSet
EndChar

StartChar: one
Encoding: 49 49 81
Width: 853
Flags: HW
LayerCount: 2
Fore
SplineSet
484 1237 m 1,0,-1
 109 1025 l 1,1,-1
 55 1186 l 1,2,-1
 484 1416 l 1,3,-1
 669 1416 l 1,4,-1
 669 0 l 1,5,-1
 484 0 l 1,6,-1
 484 1237 l 1,0,-1
EndSplineSet
EndChar

StartChar: two
Encoding: 50 50 82
Width: 1249
Flags: HW
LayerCount: 2
Fore
SplineSet
148 168 m 1,0,-1
 523 492 l 1,1,2
 889 811.077 889 811.077 889 1002 c 0,3,4
 889 1141 889 1141 814.5 1204.5 c 128,-1,5
 740 1268 740 1268 585 1268 c 0,6,7
 459.229 1268 459.229 1268 282.5 1198.5 c 0,8,9
 238 1181 238 1181 213 1168 c 1,10,-1
 162 1327 l 1,11,12
 297.082 1396.37 297.082 1396.37 498.5 1426.5 c 0,13,14
 562 1436 562 1436 641 1436 c 128,-1,15
 720 1436 720 1436 806.5 1407 c 128,-1,16
 893 1378 893 1378 955 1324 c 0,17,18
 1085 1210.77 1085 1210.77 1085 1014 c 0,19,20
 1085 745.158 1085 745.158 706 426 c 2,21,-1
 408 175 l 1,22,-1
 1122 176 l 1,23,-1
 1122 0 l 1,24,-1
 148 0 l 1,25,-1
 148 168 l 1,0,-1
EndSplineSet
EndChar

StartChar: three
Encoding: 51 51 83
Width: 1270
Flags: HW
LayerCount: 2
Fore
SplineSet
335 814 m 1,0,1
 458 808 458 808 529 808 c 128,-1,2
 600 808 600 808 665 821 c 128,-1,3
 730 834 730 834 780 863 c 0,4,5
 891 927.38 891 927.38 891 1056 c 0,6,7
 891 1162.28 891 1162.28 799.5 1218.5 c 0,8,9
 718.941 1268 718.941 1268 595 1268 c 0,10,11
 455.091 1268 455.091 1268 301 1211.5 c 0,12,13
 256 1195 256 1195 223 1178 c 1,14,-1
 172 1337 l 1,15,16
 304.13 1403.07 304.13 1403.07 511 1428.5 c 0,17,18
 572 1436 572 1436 643.5 1436 c 128,-1,19
 715 1436 715 1436 798.5 1412.5 c 128,-1,20
 882 1389 882 1389 946 1342.5 c 0,21,22
 1087 1240.05 1087 1240.05 1087 1068 c 0,23,24
 1087 905.782 1087 905.782 955.5 803 c 0,25,26
 912 769 912 769 854 749 c 1,27,-1
 853 740 l 1,28,29
 1133 667.123 1133 667.123 1133 406 c 0,30,31
 1133 211.987 1133 211.987 956 91 c 0,32,33
 793.611 -20 793.611 -20 575 -20 c 0,34,35
 288.077 -20 288.077 -20 112 89 c 1,36,-1
 165 255 l 1,37,38
 293.175 181.299 293.175 181.299 484.5 156 c 0,39,40
 545 148 545 148 605 148 c 128,-1,41
 665 148 665 148 724.5 164 c 128,-1,42
 784 180 784 180 830 211 c 0,43,44
 933 280.413 933 280.413 933 397 c 0,45,46
 933 543.429 933 543.429 755.5 605.5 c 0,47,48
 591.87 662.72 591.87 662.72 335 633 c 1,49,-1
 335 814 l 1,0,1
EndSplineSet
EndChar

StartChar: four
Encoding: 52 52 84
Width: 1398
Flags: HW
LayerCount: 2
Fore
SplineSet
77 506 m 1,0,-1
 844 1416 l 1,1,-1
 1029 1416 l 1,2,-1
 1029 508 l 1,3,-1
 1309 508 l 1,4,-1
 1309 340 l 1,5,-1
 1029 340 l 1,6,-1
 1029 0 l 1,7,-1
 844 0 l 1,8,-1
 844 340 l 1,9,-1
 131 340 l 1,10,-1
 77 506 l 1,0,-1
844 508 m 1,11,-1
 844 1191 l 1,12,-1
 282 508 l 1,13,-1
 844 508 l 1,11,-1
EndSplineSet
EndChar

StartChar: five
Encoding: 53 53 85
Width: 1271
Flags: HW
LayerCount: 2
Fore
SplineSet
166 255 m 1,0,1
 354.413 148 354.413 148 569 148 c 0,2,3
 725.275 148 725.275 148 826 217.5 c 0,4,5
 934 292.02 934 292.02 934 427 c 0,6,7
 934 590.285 934 590.285 733.5 649.5 c 0,8,9
 536.736 707.612 536.736 707.612 191 651 c 1,10,-1
 191 1416 l 1,11,-1
 1046 1416 l 1,12,-1
 1046 1248 l 1,13,-1
 376 1248 l 1,14,-1
 376 835 l 1,15,16
 688.028 877.254 688.028 877.254 898.5 786 c 0,17,18
 1134 683.895 1134 683.895 1134 436 c 0,19,20
 1134 217.333 1134 217.333 946 92 c 0,21,22
 778 -20 778 -20 540 -20 c 0,23,24
 287.811 -20 287.811 -20 113 89 c 1,25,-1
 166 255 l 1,0,1
EndSplineSet
EndChar

StartChar: six
Encoding: 54 54 86
Width: 1418
Flags: HW
LayerCount: 2
Fore
SplineSet
347 779 m 1,0,1
 544.75 892 544.75 892 789 892 c 0,2,3
 1006.83 892 1006.83 892 1144.5 788.5 c 0,4,5
 1292 677.606 1292 677.606 1292 477 c 0,6,7
 1292 257.471 1292 257.471 1125.5 116 c 0,8,9
 965.438 -20 965.438 -20 733 -20 c 0,10,11
 455.54 -20 455.54 -20 295.5 150.5 c 0,12,13
 138 318.294 138 318.294 138 601 c 0,14,15
 138 1187.86 138 1187.86 527 1370.5 c 0,16,17
 681.777 1443.17 681.777 1443.17 879 1435.5 c 0,18,19
 1055.31 1428.64 1055.31 1428.64 1218 1358 c 1,20,-1
 1170 1199 l 1,21,22
 860.681 1322.73 860.681 1322.73 644 1237.5 c 0,23,24
 400.863 1141.87 400.863 1141.87 347 779 c 1,0,1
334 576 m 2,25,26
 334 382.661 334 382.661 446.5 265 c 0,27,28
 560.281 146 560.281 146 751 146 c 0,29,30
 897.59 146 897.59 146 994 226 c 0,31,32
 1096 310.638 1096 310.638 1096 447 c 0,33,34
 1096 575.636 1096 575.636 1000 652 c 0,35,36
 909.486 724 909.486 724 771 724 c 0,37,38
 583.208 724 583.208 724 417.5 642 c 0,39,40
 369 618 369 618 334 593 c 1,41,-1
 334 576 l 2,25,26
EndSplineSet
EndChar

StartChar: seven
Encoding: 55 55 87
Width: 1105
Flags: HW
LayerCount: 2
Fore
SplineSet
856 1258 m 1,0,1
 699.333 1248 699.333 1248 570 1248 c 2,2,-1
 61 1248 l 1,3,-1
 61 1416 l 1,4,-1
 1058 1416 l 1,5,-1
 1058 1248 l 1,6,7
 884.576 1065.29 884.576 1065.29 692.5 668 c 0,8,9
 496.903 263.432 496.903 263.432 452 0 c 1,10,-1
 247 0 l 1,11,12
 313.707 313.231 313.707 313.231 510.5 708.5 c 0,13,14
 693.428 1075.92 693.428 1075.92 856 1258 c 1,0,1
EndSplineSet
EndChar

StartChar: eight
Encoding: 56 56 88
Width: 1332
Flags: HW
LayerCount: 2
Fore
SplineSet
169.5 212.5 m 128,-1,1
 127 291 127 291 127 373.5 c 128,-1,2
 127 456 127 456 147.5 509.5 c 128,-1,3
 168 563 168 563 202.5 608 c 0,4,5
 273.688 700.853 273.688 700.853 381 738 c 1,6,-1
 381 744 l 1,7,8
 293.048 768.545 293.048 768.545 231.5 852 c 0,9,10
 168 938.102 168 938.102 168 1037.55 c 128,-1,11
 168 1137 168 1137 211 1209.5 c 128,-1,12
 254 1282 254 1282 324.5 1332.5 c 0,13,14
 468.99 1436 468.99 1436 672 1436 c 0,15,16
 878.4 1436 878.4 1436 1013.5 1339.5 c 0,17,18
 1159 1235.57 1159 1235.57 1159 1062 c 0,19,20
 1159 901.759 1159 901.759 1027.5 802 c 0,21,22
 984 769 984 769 926 749 c 1,23,-1
 926 744 l 1,24,25
 1126.01 687.748 1126.01 687.748 1185.5 523 c 0,26,27
 1205 469 1205 469 1205 403.5 c 128,-1,28
 1205 338 1205 338 1183 280 c 128,-1,29
 1161 222 1161 222 1122.5 174.5 c 128,-1,30
 1084 127 1084 127 1031.5 91 c 128,-1,31
 979 55 979 55 918 30 c 0,32,33
 796 -20 796 -20 672 -20 c 128,-1,34
 548 -20 548 -20 452.5 5.5 c 128,-1,35
 357 31 357 31 284.5 82.5 c 128,-1,0
 212 134 212 134 169.5 212.5 c 128,-1,1
547 822 m 128,-1,37
 604 808 604 808 663.5 808 c 128,-1,38
 723 808 723 808 775 825.5 c 128,-1,39
 827 843 827 843 869 875 c 0,40,41
 963 946.619 963 946.619 963 1050 c 0,42,43
 963 1156.5 963 1156.5 872 1215 c 0,44,45
 789.556 1268 789.556 1268 654 1268 c 0,46,47
 465.667 1268 465.667 1268 389 1153 c 0,48,49
 363 1114 363 1114 363 1054 c 128,-1,50
 363 994 363 994 385.5 945.5 c 128,-1,51
 408 897 408 897 449 866.5 c 128,-1,36
 490 836 490 836 547 822 c 128,-1,37
351 515 m 0,52,53
 320 470 320 470 320 405.5 c 128,-1,54
 320 341 320 341 349 293 c 128,-1,55
 378 245 378 245 426.5 212.5 c 0,56,57
 522.754 148 522.754 148 672 148 c 0,58,59
 897.34 148 897.34 148 977.5 285 c 0,60,61
 1005 332 1005 332 1005 396.5 c 128,-1,62
 1005 461 1005 461 974 507.5 c 128,-1,63
 943 554 943 554 893 584 c 0,64,65
 794.667 643 794.667 643 654 643 c 0,66,67
 439.178 643 439.178 643 351 515 c 0,52,53
EndSplineSet
EndChar

StartChar: less
Encoding: 60 60 90
Width: 1318
Flags: HW
LayerCount: 2
Fore
SplineSet
107 743 m 1,0,-1
 921 1369 l 1,1,-1
 1034 1221 l 1,2,-1
 313 668 l 1,3,-1
 1033 192 l 1,4,-1
 927 35 l 1,5,-1
 107 571 l 1,6,-1
 107 743 l 1,0,-1
EndSplineSet
EndChar

StartChar: plus
Encoding: 43 43 92
Width: 1336
Flags: HW
LayerCount: 2
Fore
SplineSet
207 614 m 1,0,-1
 575 614 l 1,1,-1
 575 1000 l 1,2,-1
 760 1000 l 1,3,-1
 760 614 l 1,4,-1
 1129 614 l 1,5,-1
 1129 446 l 1,6,-1
 760 446 l 1,7,-1
 760 60 l 1,8,-1
 575 60 l 1,9,-1
 575 446 l 1,10,-1
 207 446 l 1,11,-1
 207 614 l 1,0,-1
EndSplineSet
EndChar

StartChar: plusminus
Encoding: 177 177 93
Width: 1336
Flags: HW
LayerCount: 2
Fore
SplineSet
575 796 m 1,0,-1
 207 796 l 1,1,-1
 207 964 l 1,2,-1
 575 964 l 1,3,-1
 575 1350 l 1,4,-1
 760 1350 l 1,5,-1
 760 964 l 1,6,-1
 1129 964 l 1,7,-1
 1129 796 l 1,8,-1
 760 796 l 1,9,-1
 760 410 l 1,10,-1
 575 410 l 1,11,-1
 575 796 l 1,0,-1
207 228 m 1,12,-1
 1129 228 l 1,13,-1
 1129 60 l 1,14,-1
 207 60 l 1,15,-1
 207 228 l 1,12,-1
EndSplineSet
EndChar

StartChar: equal
Encoding: 61 61 94
Width: 1336
Flags: HW
LayerCount: 2
Fore
SplineSet
207 829 m 1,0,-1
 1129 829 l 1,1,-1
 1129 675 l 1,2,-1
 207 675 l 1,3,-1
 207 829 l 1,0,-1
207 429 m 1,4,-1
 1129 429 l 1,5,-1
 1129 275 l 1,6,-1
 207 275 l 1,7,-1
 207 429 l 1,4,-1
EndSplineSet
EndChar

StartChar: divide
Encoding: 247 247 95
Width: 1336
Flags: HW
LayerCount: 2
Fore
SplineSet
758 799 m 128,-1,1
 724 765 724 765 668 765 c 128,-1,2
 612 765 612 765 578 799 c 128,-1,3
 544 833 544 833 544 889 c 128,-1,4
 544 945 544 945 578 978.5 c 128,-1,5
 612 1012 612 1012 668 1012 c 128,-1,6
 724 1012 724 1012 758 978.5 c 128,-1,7
 792 945 792 945 792 889 c 128,-1,0
 792 833 792 833 758 799 c 128,-1,1
207 613 m 1,8,-1
 1129 613 l 1,9,-1
 1129 445 l 1,10,-1
 207 445 l 1,11,-1
 207 613 l 1,8,-1
578 81 m 128,-1,13
 544 115 544 115 544 171 c 128,-1,14
 544 227 544 227 578 260.5 c 128,-1,15
 612 294 612 294 668 294 c 128,-1,16
 724 294 724 294 758 260.5 c 128,-1,17
 792 227 792 227 792 171 c 128,-1,18
 792 115 792 115 758 81 c 128,-1,19
 724 47 724 47 668 47 c 128,-1,12
 612 47 612 47 578 81 c 128,-1,13
EndSplineSet
EndChar

StartChar: logicalnot
Encoding: 172 172 96
Width: 1335
Flags: HW
LayerCount: 2
Fore
SplineSet
207 723 m 1,0,-1
 1128 723 l 1,1,-1
 1127 151 l 1,2,-1
 942 151 l 1,3,-1
 942 555 l 1,4,-1
 207 555 l 1,5,-1
 207 723 l 1,0,-1
EndSplineSet
EndChar

StartChar: mu
Encoding: 181 181 97
AltUni2: 0003bc.ffffffff.0
Width: 1317
Flags: HW
LayerCount: 2
Fore
SplineSet
958 98 m 1,0,1
 813.182 -20 813.182 -20 619 -20 c 0,2,3
 434 -20 434 -20 326 50 c 1,4,5
 354 -63.6471 354 -63.6471 354 -199 c 2,6,-1
 354 -335 l 1,7,-1
 163 -335 l 1,8,-1
 163 1000 l 1,9,-1
 353 1000 l 1,10,-1
 353 493 l 2,11,12
 353 316.969 353 316.969 411 234.5 c 0,13,14
 477.462 140 477.462 140 632 140 c 0,15,16
 783.25 140 783.25 140 889.5 225 c 0,17,18
 922 251 922 251 943 282 c 1,19,-1
 943 1000 l 1,20,-1
 1133 1000 l 1,21,-1
 1133 0 l 1,22,-1
 988 0 l 1,23,-1
 958 98 l 1,0,1
EndSplineSet
EndChar

StartChar: percent
Encoding: 37 37 98
Width: 1468
Flags: HW
LayerCount: 2
Fore
SplineSet
1246 1439 m 1,0,-1
 1367 1339 l 1,1,-1
 232 -17 l 1,2,-1
 111 83 l 1,3,-1
 1246 1439 l 1,0,-1
368 856 m 256,4,5
 240.182 856 240.182 856 155.5 936.5 c 0,6,7
 69 1018.73 69 1018.73 69 1143 c 256,8,9
 69 1267.16 69 1267.16 156.5 1352.5 c 0,10,11
 242.114 1436 242.114 1436 370 1436 c 256,12,13
 496.766 1436 496.766 1436 582.5 1354.5 c 0,14,15
 669 1272.27 669 1272.27 669 1147 c 256,16,17
 669 1021.68 669 1021.68 581.5 938.5 c 0,18,19
 494.714 856 494.714 856 368 856 c 256,4,5
488.5 1022.5 m 128,-1,21
 532 1068 532 1068 532 1143 c 0,22,23
 532 1260.87 532 1260.87 435.5 1302 c 0,24,25
 405 1315 405 1315 368 1315 c 0,26,27
 293 1315 293 1315 249.5 1268.5 c 128,-1,28
 206 1222 206 1222 206 1165.5 c 128,-1,29
 206 1109 206 1109 217.5 1078 c 128,-1,30
 229 1047 229 1047 250.5 1024.5 c 0,31,32
 295.889 977 295.889 977 370.444 977 c 128,-1,20
 445 977 445 977 488.5 1022.5 c 128,-1,21
799 267 m 256,33,34
 799 391.16 799 391.16 886.5 476.5 c 0,35,36
 972.114 560 972.114 560 1100 560 c 256,37,38
 1226.77 560 1226.77 560 1312.5 478.5 c 0,39,40
 1399 396.272 1399 396.272 1399 271 c 256,41,42
 1399 145.679 1399 145.679 1311.5 62.5 c 0,43,44
 1224.71 -20.0001 1224.71 -20.0001 1098 -20 c 256,45,46
 970.182 -20 970.182 -20 885.5 60.5 c 0,47,48
 799 142.728 799 142.728 799 267 c 256,33,34
979.5 392.5 m 128,-1,50
 936 346 936 346 936 289.5 c 128,-1,51
 936 233 936 233 947.5 202 c 128,-1,52
 959 171 959 171 980.5 148.5 c 0,53,54
 1025.89 101 1025.89 101 1100.44 101 c 128,-1,55
 1175 101 1175 101 1218.5 146.5 c 128,-1,56
 1262 192 1262 192 1262 267 c 0,57,58
 1262 384.869 1262 384.869 1165.5 426 c 0,59,60
 1135 439 1135 439 1098 439 c 0,61,49
 1023 439 1023 439 979.5 392.5 c 128,-1,50
EndSplineSet
EndChar

StartChar: hyphen
Encoding: 45 45 99
Width: 1136
Flags: HW
LayerCount: 2
Fore
SplineSet
207 669 m 1,0,-1
 929 669 l 1,1,-1
 929 515 l 1,2,-1
 207 515 l 1,3,-1
 207 669 l 1,0,-1
EndSplineSet
EndChar

StartChar: underscore
Encoding: 95 95 100
Width: 1236
Flags: HW
LayerCount: 2
Fore
SplineSet
1129 0 m 1,0,-1
 1129 -154 l 1,1,-1
 107 -154 l 1,2,-1
 107 0 l 1,3,-1
 1129 0 l 1,0,-1
EndSplineSet
EndChar

StartChar: endash
Encoding: 8211 8211 101
Width: 1556
Flags: HW
LayerCount: 2
Fore
SplineSet
267 669 m 1,0,-1
 1289 669 l 1,1,-1
 1289 515 l 1,2,-1
 267 515 l 1,3,-1
 267 669 l 1,0,-1
EndSplineSet
EndChar

StartChar: emdash
Encoding: 8212 8212 102
Width: 1636
Flags: HW
LayerCount: 2
Fore
SplineSet
107 669 m 1,0,-1
 1529 669 l 1,1,-1
 1529 515 l 1,2,-1
 107 515 l 1,3,-1
 107 669 l 1,0,-1
EndSplineSet
EndChar

StartChar: slash
Encoding: 47 47 103
Width: 997
Flags: HW
LayerCount: 2
Fore
SplineSet
749 1561 m 1,0,-1
 924 1561 l 1,1,-1
 248 -467 l 1,2,-1
 73 -467 l 1,3,-1
 749 1561 l 1,0,-1
EndSplineSet
EndChar

StartChar: backslash
Encoding: 92 92 104
Width: 997
Flags: HW
LayerCount: 2
Fore
SplineSet
73 1561 m 1,0,-1
 256 1561 l 1,1,-1
 924 -467 l 1,2,-1
 741 -467 l 1,3,-1
 73 1561 l 1,0,-1
EndSplineSet
EndChar

StartChar: bar
Encoding: 124 124 105
Width: 553
Flags: HW
LayerCount: 2
Fore
SplineSet
193 1561 m 1,0,-1
 360 1561 l 1,1,-1
 360 -467 l 1,2,-1
 193 -467 l 1,3,-1
 193 1561 l 1,0,-1
EndSplineSet
EndChar

StartChar: section
Encoding: 167 167 106
Width: 1114
Flags: HW
LayerCount: 2
Fore
SplineSet
853 457 m 1,0,1
 913 392.714 913 392.714 913 310.357 c 128,-1,2
 913 228 913 228 882.5 169.5 c 128,-1,3
 852 111 852 111 801 69 c 0,4,5
 692.929 -20 692.929 -20 548 -20 c 0,6,7
 360.848 -20 360.848 -20 196 116 c 1,8,-1
 289 264 l 1,9,10
 423.561 146 423.561 146 566 146 c 0,11,12
 666.457 146 666.457 146 704.5 216 c 0,13,14
 717 239 717 239 717 273.5 c 128,-1,15
 717 308 717 308 692 335 c 128,-1,16
 667 362 667 362 626.5 381.5 c 128,-1,17
 586 401 586 401 533.5 417 c 2,18,-1
 427 450 l 2,19,20
 291.026 492.807 291.026 492.807 239.013 533.903 c 0,21,22
 137 614.506 137 614.506 137 730 c 0,23,24
 137 799 137 799 171 860 c 128,-1,25
 205 921 205 921 260 959 c 1,26,27
 201 1022.37 201 1022.37 201 1104.69 c 128,-1,28
 201 1187 201 1187 231.5 1246 c 128,-1,29
 262 1305 262 1305 313 1347 c 0,30,31
 421.071 1436 421.071 1436 566 1436 c 0,32,33
 753.151 1436 753.151 1436 918 1300 c 1,34,-1
 825 1152 l 1,35,36
 690.439 1270 690.439 1270 548 1270 c 0,37,38
 447.543 1270 447.543 1270 409.5 1200 c 0,39,40
 397 1177 397 1177 397 1142.5 c 128,-1,41
 397 1108 397 1108 422 1081 c 128,-1,42
 447 1054 447 1054 487.5 1034.5 c 128,-1,43
 528 1015 528 1015 580.5 999 c 2,44,-1
 687 966 l 2,45,46
 822.974 923.193 822.974 923.193 874.987 882.097 c 0,47,48
 977 801.494 977 801.494 977 686 c 0,49,50
 977 616 977 616 943 555.5 c 128,-1,51
 909 495 909 495 853 457 c 1,0,1
383 877 m 1,52,53
 333 836.091 333 836.091 333 760 c 0,54,55
 333 677.438 333 677.438 468 628.5 c 0,56,57
 508 614 508 614 552 600.5 c 2,58,-1
 642 572.5 l 2,59,60
 688 558 688 558 731 539 c 1,61,62
 781 579.909 781 579.909 781 656 c 0,63,64
 781 739.75 781 739.75 646 787 c 1,65,-1
 471.5 843.5 l 2,66,67
 425 858 425 858 383 877 c 1,52,53
EndSplineSet
EndChar

StartChar: paragraph
Encoding: 182 182 107
Width: 1226
Flags: HW
LayerCount: 2
Fore
SplineSet
567 704 m 1,0,1
 377 704 377 704 257 792 c 0,2,3
 127 887.333 127 887.333 127 1060 c 256,4,5
 127 1229.04 127 1229.04 267.5 1327.5 c 0,6,7
 392.36 1415 392.36 1415 588 1415 c 2,8,-1
 1062 1415 l 1,9,-1
 1062 -104 l 1,10,-1
 915 -104 l 1,11,-1
 915 1285 l 1,12,-1
 718 1285 l 1,13,-1
 718 -104 l 1,14,-1
 567 -104 l 1,15,-1
 567 704 l 1,0,1
EndSplineSet
EndChar

StartChar: periodcentered
Encoding: 183 183 108
Width: 562
Flags: HW
LayerCount: 2
Fore
SplineSet
393.5 438.5 m 128,-1,1
 351 396 351 396 281 396 c 128,-1,2
 211 396 211 396 168.5 438.5 c 128,-1,3
 126 481 126 481 126 551 c 128,-1,4
 126 621 126 621 168.5 663 c 128,-1,5
 211 705 211 705 281 705 c 128,-1,6
 351 705 351 705 393.5 663 c 128,-1,7
 436 621 436 621 436 551 c 128,-1,0
 436 481 436 481 393.5 438.5 c 128,-1,1
EndSplineSet
EndChar

StartChar: bullet
Encoding: 8226 8226 109
Width: 622
Flags: HW
LayerCount: 2
Fore
SplineSet
394.5 382 m 128,-1,1
 357 367 357 367 311.5 367 c 128,-1,2
 266 367 266 367 228 382 c 128,-1,3
 190 397 190 397 163 423.5 c 0,4,5
 107 478.463 107 478.463 107 570 c 0,6,7
 107 662 107 662 163 718 c 128,-1,8
 219 774 219 774 312 774 c 0,9,10
 451.8 774 451.8 774 500 653.5 c 0,11,12
 515 616 515 616 515 570.5 c 128,-1,13
 515 525 515 525 500 487.5 c 128,-1,14
 485 450 485 450 458.5 423.5 c 128,-1,0
 432 397 432 397 394.5 382 c 128,-1,1
EndSplineSet
EndChar

StartChar: asterisk
Encoding: 42 42 110
Width: 1107
Flags: HW
LayerCount: 2
Fore
SplineSet
480 1218 m 1,0,-1
 244 1101 l 1,1,-1
 187 1199 l 1,2,-1
 406 1345 l 1,3,-1
 187 1491 l 1,4,-1
 244 1589 l 1,5,-1
 480 1471 l 1,6,-1
 496 1735 l 1,7,-1
 610 1735 l 1,8,-1
 626 1472 l 1,9,-1
 863 1590 l 1,10,-1
 920 1491 l 1,11,-1
 699 1345 l 1,12,-1
 920 1199 l 1,13,-1
 863 1100 l 1,14,-1
 626 1218 l 1,15,-1
 610 954 l 1,16,-1
 496 954 l 1,17,-1
 480 1218 l 1,0,-1
EndSplineSet
EndChar

StartChar: ordfeminine
Encoding: 170 170 111
Width: 933
Flags: HW
LayerCount: 2
Fore
SplineSet
620 909 m 1,0,1
 485.812 796 485.812 796 344 796 c 0,2,3
 232.947 796 232.947 796 157 854.5 c 0,4,5
 75 917.662 75 917.662 75 1007.83 c 128,-1,6
 75 1098 75 1098 118 1153 c 128,-1,7
 161 1208 161 1208 232.5 1242.5 c 0,8,9
 367.358 1307.57 367.358 1307.57 591 1312 c 1,10,11
 585.235 1386.95 585.235 1386.95 540 1413.5 c 0,12,13
 499.963 1437 499.963 1437 405.231 1437 c 128,-1,14
 310.5 1437 310.5 1437 213 1398 c 1,15,-1
 173 1514 l 1,16,17
 285 1566 285 1566 423 1566 c 0,18,19
 655.6 1566 655.6 1566 731 1421 c 0,20,21
 757 1371 757 1371 757 1302 c 2,22,-1
 757 1067 l 2,23,24
 757 996.667 757 996.667 769 971.333 c 0,25,26
 789.388 928.292 789.388 928.292 841 913 c 1,27,-1
 817 810 l 1,28,29
 675.251 791.591 675.251 791.591 620 909 c 1,0,1
356 926 m 0,30,31
 495.7 926 495.7 926 592 1033 c 1,32,-1
 592 1193 l 1,33,34
 418.295 1183.61 418.295 1183.61 356.147 1160.31 c 128,-1,35
 294 1137 294 1137 266.5 1106.5 c 128,-1,36
 239 1076 239 1076 239 1026 c 128,-1,37
 239 976 239 976 271.5 951 c 128,-1,38
 304 926 304 926 356 926 c 0,30,31
EndSplineSet
EndChar

StartChar: ordmasculine
Encoding: 186 186 112
Width: 938
Flags: HW
LayerCount: 2
Fore
SplineSet
462 794 m 256,0,1
 291.178 794 291.178 794 181.5 899.5 c 0,2,3
 69 1007.71 69 1007.71 69 1174 c 256,4,5
 69 1340.46 69 1340.46 188.5 1453.5 c 0,6,7
 307.429 1566 307.429 1566 476 1566 c 256,8,9
 645.782 1566 645.782 1566 756.5 1459.5 c 0,10,11
 869 1351.29 869 1351.29 869 1183 c 0,12,13
 869 1016.96 869 1016.96 749.5 905 c 0,14,15
 631.029 794 631.029 794 462 794 c 256,0,1
474.5 930 m 0,16,17
 527 930 527 930 568.5 949 c 128,-1,18
 610 968 610 968 640 1001 c 0,19,20
 703 1070.3 703 1070.3 703 1174 c 0,21,22
 703 1283.67 703 1283.67 636.5 1356.5 c 0,23,24
 569.391 1430 569.391 1430 462 1430 c 0,25,26
 362.412 1430 362.412 1430 298 1357 c 0,27,28
 235 1285.6 235 1285.6 235 1183 c 0,29,30
 235 1073.78 235 1073.78 301.5 1002 c 0,31,32
 368.206 930 368.206 930 474.5 930 c 0,16,17
EndSplineSet
EndChar

StartChar: braceleft
Encoding: 123 123 113
Width: 733
Flags: HW
LayerCount: 2
Fore
SplineSet
256 642 m 1,0,1
 401 577.338 401 577.338 401 362 c 2,2,-1
 401 36 l 2,3,4
 401 -96.1053 401 -96.1053 493.5 -174 c 0,5,6
 522 -198 522 -198 556 -218 c 1,7,-1
 481 -330 l 1,8,9
 310.749 -265.305 310.749 -265.305 254 -113.5 c 0,10,11
 234 -60 234 -60 234 6 c 2,12,-1
 234 332 l 2,13,14
 234 430.2 234 430.2 191 499 c 0,15,16
 147.25 569 147.25 569 87 569 c 1,17,-1
 87 698 l 1,18,19
 149.039 698 149.039 698 191 751.5 c 0,20,21
 234 806.325 234 806.325 234 895 c 2,22,-1
 234 1225 l 2,23,24
 234 1377 234 1377 297 1477.5 c 128,-1,25
 360 1578 360 1578 471 1616 c 1,26,-1
 539 1509 l 1,27,28
 468 1470 468 1470 434.5 1411 c 128,-1,29
 401 1352 401 1352 401 1255 c 2,30,-1
 401 925 l 2,31,32
 401 708.622 401 708.622 256 642 c 1,0,1
EndSplineSet
EndChar

StartChar: parenleft
Encoding: 40 40 115
Width: 800
Flags: HW
LayerCount: 2
Fore
SplineSet
556 -307 m 1,0,1
 137 60.6939 137 60.6939 137 633 c 0,2,3
 137 1220.27 137 1220.27 569 1590 c 1,4,-1
 668 1485 l 1,5,6
 402.631 1207.7 402.631 1207.7 342 893 c 0,7,8
 321 784 321 784 321 651 c 128,-1,9
 321 518 321 518 348 394 c 128,-1,10
 375 270 375 270 423 163.5 c 0,11,12
 509.734 -28.9409 509.734 -28.9409 679 -207 c 1,13,-1
 556 -307 l 1,0,1
EndSplineSet
EndChar

StartChar: bracketleft
Encoding: 91 91 117
Width: 733
Flags: HW
LayerCount: 2
Fore
SplineSet
193 1616 m 1,0,-1
 610 1616 l 1,1,-1
 610 1448 l 1,2,-1
 360 1448 l 1,3,-1
 360 -162 l 1,4,-1
 610 -162 l 1,5,-1
 610 -331 l 1,6,-1
 193 -331 l 1,7,-1
 193 1616 l 1,0,-1
EndSplineSet
EndChar

StartChar: dollar
Encoding: 36 36 119
Width: 1288
Flags: HW
LayerCount: 2
Fore
SplineSet
211 406 m 1,0,1
 374.059 283.203 374.059 283.203 565 254 c 1,2,-1
 565 659 l 1,3,4
 370.223 696.457 370.223 696.457 294.111 741.229 c 128,-1,5
 218 786 218 786 182 840.5 c 128,-1,6
 146 895 146 895 146 975.5 c 128,-1,7
 146 1056 146 1056 181.5 1118.5 c 128,-1,8
 217 1181 217 1181 275.5 1225.5 c 0,9,10
 392.878 1314.79 392.878 1314.79 565 1332 c 1,11,-1
 565 1471 l 1,12,-1
 718 1471 l 1,13,-1
 718 1332 l 1,14,15
 924.97 1311.3 924.97 1311.3 1089 1206 c 1,16,-1
 1020 1044 l 1,17,18
 880.168 1127.9 880.168 1127.9 718 1159 c 1,19,-1
 718 802 l 1,20,21
 928.142 760.491 928.142 760.491 1005.57 716.245 c 128,-1,22
 1083 672 1083 672 1122 615.5 c 128,-1,23
 1161 559 1161 559 1161 472 c 256,24,25
 1161 308.154 1161 308.154 1025.5 203.5 c 0,26,27
 905.757 111.015 905.757 111.015 718 87 c 1,28,-1
 718 -96 l 1,29,-1
 565 -96 l 1,30,-1
 565 82 l 1,31,32
 379.571 94.3619 379.571 94.3619 211.5 184 c 0,33,34
 159 212 159 212 116 246 c 1,35,-1
 211 406 l 1,0,1
565 1165 m 1,36,37
 412.719 1147.29 412.719 1147.29 362.5 1064.5 c 0,38,39
 344 1034 344 1034 344 995 c 128,-1,40
 344 956 344 956 361 931 c 128,-1,41
 378 906 378 906 407.5 887.5 c 0,42,43
 460.569 854.219 460.569 854.219 565 832 c 1,44,-1
 565 1165 l 1,36,37
718 254 m 1,45,46
 884.968 274.871 884.968 274.871 942.5 374.5 c 0,47,48
 963 410 963 410 963 453 c 128,-1,49
 963 496 963 496 944 523 c 128,-1,50
 925 550 925 550 892 569.5 c 0,51,52
 836.112 602.525 836.112 602.525 718 628 c 1,53,-1
 718 254 l 1,45,46
EndSplineSet
EndChar

StartChar: cent
Encoding: 162 162 120
Width: 1065
Flags: HW
LayerCount: 2
Fore
SplineSet
1028 273 m 1,0,1
 902.586 202.692 902.586 202.692 718 184 c 1,2,-1
 718 -96 l 1,3,-1
 565 -96 l 1,4,-1
 565 182 l 1,5,6
 346.587 200.201 346.587 200.201 222 335 c 0,7,8
 95 472.41 95 472.41 95 698 c 0,9,10
 95 908.96 95 908.96 227.5 1051 c 0,11,12
 357.739 1190.62 357.739 1190.62 565 1215 c 1,13,-1
 565 1471 l 1,14,-1
 718 1471 l 1,15,-1
 718 1217 l 1,16,17
 887.969 1205.14 887.969 1205.14 999 1145 c 1,18,-1
 953 992 l 1,19,20
 856.93 1042.56 856.93 1042.56 718 1058 c 1,21,-1
 718 343 l 1,22,23
 876.2 359.049 876.2 359.049 992 416 c 1,24,-1
 1028 273 l 1,0,1
565 1059 m 1,25,26
 434.737 1038.96 434.737 1038.96 360 944.5 c 0,27,28
 285 849.708 285 849.708 285 710 c 0,29,30
 285 491.505 285 491.505 448.5 391.5 c 0,31,32
 500 360 500 360 565 348 c 1,33,-1
 565 1059 l 1,25,26
EndSplineSet
EndChar

StartChar: sterling
Encoding: 163 163 121
Width: 1208
Flags: HW
LayerCount: 2
Fore
SplineSet
314 144 m 1,0,1
 458 168 458 168 575 168 c 2,2,-1
 1091 168 l 1,3,-1
 1091 0 l 1,4,-1
 145 0 l 1,5,-1
 128 166 l 1,6,7
 351 287.953 351 287.953 351 504 c 0,8,9
 351 544 351 544 343 590 c 1,10,-1
 142 590 l 1,11,-1
 142 744 l 1,12,-1
 313 744 l 1,13,14
 288 871.5 288 871.5 288 971.75 c 128,-1,15
 288 1072 288 1072 315.5 1158.5 c 128,-1,16
 343 1245 343 1245 396.5 1307 c 0,17,18
 508.677 1437 508.677 1437 713 1437 c 0,19,20
 844.176 1437 844.176 1437 956.5 1380 c 0,21,22
 990 1363 990 1363 1011 1345 c 1,23,-1
 946 1209 l 1,24,25
 834 1283 834 1283 703 1283 c 0,26,27
 475 1283 475 1283 475 998 c 0,28,29
 475 904.636 475 904.636 506 744 c 1,30,-1
 864 744 l 1,31,-1
 864 590 l 1,32,-1
 534 590 l 1,33,34
 537 561 537 561 537 521.5 c 128,-1,35
 537 482 537 482 526 431 c 128,-1,36
 515 380 515 380 489.5 330.5 c 0,37,38
 435.466 225.61 435.466 225.61 314 144 c 1,0,1
EndSplineSet
EndChar

StartChar: Euro
Encoding: 8364 8364 122
Width: 1697
Flags: HW
LayerCount: 2
Fore
SplineSet
482 795 m 1,0,1
 478 759 478 759 478 706 c 128,-1,2
 478 653 478 653 489 598 c 1,3,-1
 1267 598 l 1,4,-1
 1247 444 l 1,5,-1
 538 444 l 1,6,7
 639.132 232.256 639.132 232.256 859 167.5 c 0,8,9
 932 146 932 146 1003 146 c 128,-1,10
 1074 146 1074 146 1136.5 157.5 c 128,-1,11
 1199 169 1199 169 1257.5 189 c 0,12,13
 1383.19 231.971 1383.19 231.971 1458 293 c 1,14,-1
 1530 155 l 1,15,16
 1382.54 29.0468 1382.54 29.0468 1151 -8 c 0,17,18
 1076 -20 1076 -20 975 -20 c 128,-1,19
 874 -20 874 -20 766 13 c 128,-1,20
 658 46 658 46 570.5 106.5 c 0,21,22
 391.594 230.201 391.594 230.201 321 444 c 1,23,-1
 65 444 l 1,24,-1
 85 598 l 1,25,-1
 287 598 l 1,26,27
 282 655.5 282 655.5 282 700.25 c 128,-1,28
 282 745 282 745 288 795 c 1,29,-1
 105 795 l 1,30,-1
 125 949 l 1,31,-1
 320 949 l 1,32,33
 390.165 1171.52 390.165 1171.52 573 1303 c 0,34,35
 757.953 1436 757.953 1436 1015 1436 c 0,36,37
 1306.31 1436 1306.31 1436 1517 1270 c 1,38,-1
 1424 1122 l 1,39,40
 1258.33 1270 1258.33 1270 997 1270 c 0,41,42
 736.412 1270 736.412 1270 591.5 1080.5 c 0,43,44
 546 1021 546 1021 518 949 c 1,45,-1
 1307 949 l 1,46,-1
 1287 795 l 1,47,-1
 482 795 l 1,0,1
EndSplineSet
EndChar

StartChar: yen
Encoding: 165 165 123
Width: 1291
Flags: HW
LayerCount: 2
Fore
SplineSet
185 429 m 1,0,-1
 559 429 l 1,1,-1
 559 575 l 1,2,-1
 185 575 l 1,3,-1
 185 729 l 1,4,-1
 478 729 l 1,5,-1
 37 1416 l 1,6,-1
 240 1416 l 1,7,-1
 653 769 l 1,8,-1
 1063 1416 l 1,9,-1
 1254 1416 l 1,10,-1
 820 729 l 1,11,-1
 1107 729 l 1,12,-1
 1107 575 l 1,13,-1
 744 575 l 1,14,-1
 744 429 l 1,15,-1
 1107 429 l 1,16,-1
 1107 275 l 1,17,-1
 744 275 l 1,18,-1
 744 0 l 1,19,-1
 559 0 l 1,20,-1
 559 275 l 1,21,-1
 185 275 l 1,22,-1
 185 429 l 1,0,-1
EndSplineSet
EndChar

StartChar: at
Encoding: 64 64 124
Width: 1932
Flags: HW
LayerCount: 2
Fore
SplineSet
1219 818 m 1,0,-1
 1232 883 l 1,1,-1
 1384 883 l 1,2,-1
 1295 448 l 2,3,4
 1278 364 1278 364 1297.5 311 c 128,-1,5
 1317 258 1317 258 1375.5 258 c 128,-1,6
 1434 258 1434 258 1481.5 299 c 128,-1,7
 1529 340 1529 340 1562 401.5 c 0,8,9
 1629 526.364 1629 526.364 1629 653.182 c 128,-1,10
 1629 780 1629 780 1588 872 c 128,-1,11
 1547 964 1547 964 1474.5 1029.5 c 0,12,13
 1324.52 1165 1324.52 1165 1092 1165 c 0,14,15
 895.078 1165 895.078 1165 707 1056 c 0,16,17
 527.339 951.879 527.339 951.879 417.5 782.5 c 0,18,19
 303 605.935 303 605.935 303 442.467 c 128,-1,20
 303 279 303 279 354.5 175.5 c 128,-1,21
 406 72 406 72 497 6 c 0,22,23
 674.864 -123 674.864 -123 979 -123 c 1,24,-1
 940 -243 l 1,25,26
 586.168 -243 586.168 -243 377 -91.5 c 0,27,28
 147 75.0888 147 75.0888 147 393 c 0,29,30
 147 649.672 147 649.672 294.5 865 c 0,31,32
 429.903 1062.67 429.903 1062.67 656 1181 c 0,33,34
 875.732 1296 875.732 1296 1110 1296 c 0,35,36
 1395.83 1296 1395.83 1296 1587 1136 c 0,37,38
 1785 970.283 1785 970.283 1785 697 c 0,39,40
 1785 483.152 1785 483.152 1661.5 306.5 c 0,41,42
 1580.16 190.151 1580.16 190.151 1463 141.5 c 0,43,44
 1404 117 1404 117 1337 117 c 0,45,46
 1174 117 1174 117 1138 255 c 1,47,48
 994 117 994 117 841 117 c 0,49,50
 709.405 117 709.405 117 631 206 c 0,51,52
 554 293.405 554 293.405 554 429 c 0,53,54
 554 545.983 554 545.983 616 662.5 c 0,55,56
 675.259 773.866 675.259 773.866 777 845.5 c 0,57,58
 881.391 919 881.391 919 1010.92 919 c 128,-1,59
 1140.44 919 1140.44 919 1219 818 c 1,0,-1
1190 670 m 1,60,61
 1080.71 772 1080.71 772 961 772 c 0,62,63
 862.355 772 862.355 772 792.5 665.5 c 0,64,65
 728 567.164 728 567.164 728 456 c 0,66,67
 728 327.096 728 327.096 803 279.5 c 0,68,69
 829 263 829 263 870 263 c 128,-1,70
 911 263 911 263 952.5 278 c 128,-1,71
 994 293 994 293 1029 315.5 c 0,72,73
 1087.33 353 1087.33 353 1138 409 c 1,74,75
 1140 418 1140 418 1141.5 427.5 c 128,-1,76
 1143 437 1143 437 1146 448 c 2,77,-1
 1190 670 l 1,60,61
1261 741 m 1,78,-1
 1262 741 l 1,79,-1
 1261 741 l 1,78,-1
EndSplineSet
EndChar

StartChar: copyright
Encoding: 169 169 125
Width: 1584
Flags: HW
LayerCount: 2
Fore
SplineSet
137 586 m 0,0,1
 137 721 137 721 188.5 837 c 128,-1,2
 240 953 240 953 330 1036 c 0,3,4
 520.843 1212 520.843 1212 800 1212 c 0,5,6
 1070.1 1212 1070.1 1212 1256 1043 c 0,7,8
 1344 963 1344 963 1395.5 852 c 128,-1,9
 1447 741 1447 741 1447 606 c 128,-1,10
 1447 471 1447 471 1395.5 355 c 128,-1,11
 1344 239 1344 239 1254 156 c 0,12,13
 1063.16 -20 1063.16 -20 784 -20 c 0,14,15
 513.9 -20 513.9 -20 328 149 c 0,16,17
 137 322.636 137 322.636 137 586 c 0,0,1
283 607.5 m 0,18,19
 283 502 283 502 323.5 409.5 c 128,-1,20
 364 317 364 317 434.5 248.5 c 0,21,22
 586.307 101 586.307 101 800 101 c 0,23,24
 1009.04 101 1009.04 101 1154 238.5 c 0,25,26
 1301 377.934 1301 377.934 1301 583 c 0,27,28
 1301 797.298 1301 797.298 1149.5 944.5 c 0,29,30
 997.693 1092 997.693 1092 784 1092 c 0,31,32
 574.961 1092 574.961 1092 430 954.5 c 0,33,34
 283 815.066 283 815.066 283 607.5 c 0,18,19
818 401 m 0,35,36
 917.2 401 917.2 401 1009 446 c 1,37,-1
 1036 342 l 1,38,39
 979.926 299.945 979.926 299.945 870.5 282.5 c 0,40,41
 836 277 836 277 782.5 277 c 128,-1,42
 729 277 729 277 666.5 298.5 c 128,-1,43
 604 320 604 320 560 360.5 c 0,44,45
 467 446.102 467 446.102 467 595 c 0,46,47
 467 739.253 467 739.253 568.5 829 c 0,48,49
 668.024 917 668.024 917 818 917 c 0,50,51
 927 917 927 917 1016 863 c 1,52,-1
 965 753 l 1,53,54
 888.053 796 888.053 796 799.526 796 c 128,-1,55
 711 796 711 796 662 747 c 128,-1,56
 613 698 613 698 613 604 c 0,57,58
 613 401 613 401 818 401 c 0,35,36
EndSplineSet
EndChar

StartChar: registered
Encoding: 174 174 126
Width: 1299
Flags: HW
LayerCount: 2
Fore
SplineSet
645.5 715 m 0,0,1
 531 715 531 715 432 752.5 c 128,-1,2
 333 790 333 790 258.5 857.5 c 0,3,4
 97 1003.83 97 1003.83 97 1223 c 0,5,6
 97 1453.3 97 1453.3 260 1604.5 c 0,7,8
 420.085 1753 420.085 1753 656 1753 c 0,9,10
 883.222 1753 883.222 1753 1040.5 1610.5 c 0,11,12
 1202 1464.17 1202 1464.17 1202 1244 c 0,13,14
 1202 1013.13 1202 1013.13 1039 863 c 0,15,16
 878.314 715 878.314 715 645.5 715 c 0,0,1
654.5 821 m 0,17,18
 742 821 742 821 818 851.5 c 128,-1,19
 894 882 894 882 951 936 c 0,20,21
 1074 1052.53 1074 1052.53 1074 1223 c 0,22,23
 1074 1400.16 1074 1400.16 947.5 1524.5 c 0,24,25
 821.852 1648 821.852 1648 643 1648 c 0,26,27
 470.444 1648 470.444 1648 348 1532 c 0,28,29
 225 1415.47 225 1415.47 225 1244 c 0,30,31
 225 1067.26 225 1067.26 351.5 944 c 0,32,33
 477.737 821 477.737 821 654.5 821 c 0,17,18
694 1119 m 1,34,35
 666 1117 666 1117 640 1117 c 2,36,-1
 520 1117 l 1,37,-1
 520 971 l 1,38,-1
 419 971 l 1,39,-1
 419 1505 l 1,40,-1
 651 1505 l 2,41,42
 838.722 1505 838.722 1505 898 1408 c 0,43,44
 920 1372 920 1372 920 1318 c 0,45,46
 920 1189.71 920 1189.71 796 1141 c 1,47,-1
 886 971 l 1,48,-1
 773 971 l 1,49,-1
 694 1119 l 1,34,35
649 1213 m 2,50,51
 770.308 1213 770.308 1213 802.5 1259.5 c 0,52,53
 816 1279 816 1279 816 1312 c 256,54,55
 816 1396.5 816 1396.5 704 1407 c 0,56,57
 672 1410 672 1410 639 1410 c 2,58,-1
 520 1410 l 1,59,-1
 520 1213 l 1,60,-1
 649 1213 l 2,50,51
EndSplineSet
EndChar

StartChar: asciicircum
Encoding: 94 94 127
Width: 1288
Flags: HW
LayerCount: 2
Fore
SplineSet
65 722 m 1,0,-1
 639 1436 l 1,1,-1
 1223 723 l 1,2,-1
 1116 625 l 1,3,-1
 633 1156 l 1,4,-1
 176 632 l 1,5,-1
 65 722 l 1,0,-1
EndSplineSet
EndChar

StartChar: asciitilde
Encoding: 126 126 128
Width: 1288
Flags: HW
LayerCount: 2
Fore
SplineSet
157 910 m 1,0,1
 247.471 1126.58 247.471 1126.58 405.5 1180 c 0,2,3
 441 1192 441 1192 481 1192 c 128,-1,4
 521 1192 521 1192 554.5 1178.5 c 128,-1,5
 588 1165 588 1165 617 1145 c 128,-1,6
 646 1125 646 1125 671.5 1101.5 c 128,-1,7
 697 1078 697 1078 721.5 1058 c 0,8,9
 779.075 1011 779.075 1011 811.537 1011 c 128,-1,10
 844 1011 844 1011 864.5 1018 c 128,-1,11
 885 1025 885 1025 903 1037 c 0,12,13
 969.75 1081.5 969.75 1081.5 1020 1182 c 1,14,-1
 1131 1126 l 1,15,16
 1029.1 916.683 1029.1 916.683 872 866.5 c 0,17,18
 836 855 836 855 796 855 c 256,19,20
 704.702 855 704.702 855 606.5 945.5 c 128,-1,21
 508.298 1036 508.298 1036 456 1036 c 0,22,23
 381.235 1036 381.235 1036 317 945 c 0,24,25
 289 905 289 905 268 855 c 1,26,-1
 157 910 l 1,0,1
EndSplineSet
EndChar

StartChar: grave
Encoding: 96 96 129
Width: 591
Flags: HW
LayerCount: 2
Fore
SplineSet
60 1408 m 1,0,-1
 174 1525 l 1,1,-1
 507 1239 l 1,2,-1
 416 1148 l 1,3,-1
 60 1408 l 1,0,-1
EndSplineSet
EndChar

StartChar: acute
Encoding: 180 180 130
Width: 598
Flags: HW
LayerCount: 2
Fore
SplineSet
86 1235 m 1,0,-1
 419 1521 l 1,1,-1
 535 1405 l 1,2,-1
 179 1145 l 1,3,-1
 86 1235 l 1,0,-1
EndSplineSet
EndChar

StartChar: circumflex
Encoding: 710 710 131
Width: 598
Flags: HW
LayerCount: 2
Fore
SplineSet
-11 1232 m 1,0,-1
 299 1526 l 1,1,-1
 607 1234 l 1,2,-1
 514 1145 l 1,3,-1
 293 1330 l 1,4,-1
 80 1145 l 1,5,-1
 -11 1232 l 1,0,-1
EndSplineSet
EndChar

StartChar: dieresis
Encoding: 168 168 132
Width: 598
Flags: HW
LayerCount: 2
Fore
SplineSet
495 1222 m 256,0,1
 450 1222 450 1222 419.5 1252.5 c 128,-1,2
 389 1283 389 1283 389 1328 c 256,3,4
 389 1373 389 1373 419.5 1403.5 c 128,-1,5
 450 1434 450 1434 495 1434 c 256,6,7
 540 1434 540 1434 570.5 1403.5 c 128,-1,8
 601 1373 601 1373 601 1328 c 256,9,10
 601 1283 601 1283 570.5 1252.5 c 128,-1,11
 540 1222 540 1222 495 1222 c 256,0,1
103 1222 m 256,12,13
 58 1222 58 1222 27.5 1252.5 c 128,-1,14
 -3 1283 -3 1283 -3 1328 c 256,15,16
 -3 1373 -3 1373 27.5 1403.5 c 128,-1,17
 58 1434 58 1434 103 1434 c 256,18,19
 148 1434 148 1434 178.5 1403.5 c 128,-1,20
 209 1373 209 1373 209 1328 c 256,21,22
 209 1283 209 1283 178.5 1252.5 c 128,-1,23
 148 1222 148 1222 103 1222 c 256,12,13
EndSplineSet
EndChar

StartChar: tilde
Encoding: 732 732 133
Width: 598
Flags: HW
LayerCount: 2
Fore
SplineSet
167 1310 m 0,0,1
 92.9 1310 92.9 1310 30 1199 c 1,2,-1
 -67 1270 l 1,3,4
 -5.1896 1409.75 -5.1896 1409.75 128.5 1446 c 0,5,6
 158 1454 158 1454 195.5 1454 c 128,-1,7
 233 1454 233 1454 267.5 1436.5 c 128,-1,8
 302 1419 302 1419 331 1398.5 c 2,9,10
 385 1360.5 l 2,11,12
 410 1343 410 1343 433 1343 c 0,13,14
 505.548 1343 505.548 1343 570 1454 c 1,15,-1
 666 1395 l 1,16,17
 600.387 1244.64 600.387 1244.64 471.5 1207.5 c 0,18,19
 442 1199 442 1199 404 1199 c 128,-1,20
 366 1199 366 1199 332 1216.5 c 128,-1,21
 298 1234 298 1234 269 1254.5 c 2,22,-1
 214.5 1292.5 l 2,23,24
 189 1310 189 1310 167 1310 c 0,0,1
EndSplineSet
EndChar

StartChar: caron
Encoding: 711 711 134
Width: 598
Flags: HW
LayerCount: 2
Fore
SplineSet
-11 1437 m 1,0,-1
 82 1526 l 1,1,-1
 303 1341 l 1,2,-1
 516 1526 l 1,3,-1
 607 1439 l 1,4,-1
 297 1145 l 1,5,-1
 -11 1437 l 1,0,-1
EndSplineSet
EndChar

StartChar: ring
Encoding: 730 730 135
Width: 938
Flags: HW
LayerCount: 2
Fore
SplineSet
551 1158.5 m 128,-1,1
 508 1143 508 1143 460.5 1143 c 128,-1,2
 413 1143 413 1143 372.5 1156.5 c 128,-1,3
 332 1170 332 1170 303 1196 c 0,4,5
 242 1250.69 242 1250.69 242 1346 c 0,6,7
 242 1437.09 242 1437.09 312.5 1500 c 0,8,9
 380.862 1561 380.862 1561 476 1561 c 0,10,11
 628.829 1561 628.829 1561 680.5 1442 c 0,12,13
 697 1404 697 1404 697 1356 c 128,-1,14
 697 1308 697 1308 677.5 1269.5 c 128,-1,15
 658 1231 658 1231 626 1202.5 c 128,-1,0
 594 1174 594 1174 551 1158.5 c 128,-1,1
390.5 1273 m 128,-1,17
 423 1244 423 1244 472 1244 c 128,-1,18
 521 1244 521 1244 551 1272.5 c 128,-1,19
 581 1301 581 1301 581 1350 c 128,-1,20
 581 1399 581 1399 548 1429.5 c 128,-1,21
 515 1460 515 1460 466 1460 c 128,-1,22
 417 1460 417 1460 387.5 1430 c 128,-1,23
 358 1400 358 1400 358 1351 c 128,-1,16
 358 1302 358 1302 390.5 1273 c 128,-1,17
EndSplineSet
EndChar

StartChar: macron
Encoding: 175 175 136
Width: 598
Flags: HW
LayerCount: 2
Fore
SplineSet
-23 1400 m 1,0,-1
 621 1400 l 1,1,-1
 621 1260 l 1,2,-1
 -23 1260 l 1,3,-1
 -23 1400 l 1,0,-1
EndSplineSet
EndChar

StartChar: cedilla
Encoding: 184 184 137
Width: 598
Flags: HW
LayerCount: 2
Fore
SplineSet
334 -15 m 1,0,1
 326 -33 326 -33 320 -48 c 2,2,3
 308.5 -77 l 2,4,5
 303 -91 303 -91 301 -100 c 1,6,7
 365 -116 365 -116 401.5 -154 c 128,-1,8
 438 -192 438 -192 438 -237.5 c 128,-1,9
 438 -283 438 -283 417.5 -317.5 c 128,-1,10
 397 -352 397 -352 365.5 -383.5 c 0,11,12
 303.737 -445.263 303.737 -445.263 220 -486 c 1,13,-1
 146 -411 l 1,14,15
 186.5 -379.5 l 1,16,17
 261 -319.537 261 -319.537 261 -279 c 0,18,19
 261 -233.632 261 -233.632 144 -209 c 1,20,21
 156.633 -160.573 156.633 -160.573 174.317 -118.286 c 2,22,-1
 204 -49.5 l 2,23,24
 216 -23 216 -23 227 -3 c 1,25,-1
 334 -15 l 1,0,1
EndSplineSet
EndChar

StartChar: ae
Encoding: 230 230 138
Width: 1809
Flags: HW
LayerCount: 2
Fore
SplineSet
876 170 m 1,0,1
 658.059 -20 658.059 -20 428 -20 c 0,2,3
 295.37 -20 295.37 -20 202.5 54.5 c 0,4,5
 101 135.923 101 135.923 101 263 c 0,6,7
 101 528.555 101 528.555 454.5 617.5 c 0,8,9
 598.199 653.656 598.199 653.656 798 658 c 1,10,11
 792.476 820.949 792.476 820.949 638.5 850.5 c 0,12,13
 589 860 589 860 545 860 c 128,-1,14
 501 860 501 860 467 856 c 128,-1,15
 433 852 433 852 397 845 c 0,16,17
 318.16 829.67 318.16 829.67 263 808 c 1,18,-1
 210 950 l 1,19,20
 350 1020 350 1020 548 1020 c 0,21,22
 827.035 1020 827.035 1020 935 859 c 1,23,24
 1081.17 1020 1081.17 1020 1310 1020 c 0,25,26
 1491 1020 1491 1020 1598.5 912.5 c 0,27,28
 1713 798 1713 798 1713 591 c 0,29,30
 1713 526 1713 526 1692 400 c 1,31,-1
 997 400 l 1,32,33
 1019 279 1019 279 1095 209.5 c 128,-1,34
 1171 140 1171 140 1310 140 c 0,35,36
 1495.57 140 1495.57 140 1651 208 c 1,37,-1
 1683 65 l 1,38,39
 1580.35 5.11997 1580.35 5.11997 1389.5 -14.5 c 0,40,41
 1336 -20 1336 -20 1291 -20 c 0,42,43
 995.255 -20 995.255 -20 876 170 c 1,0,1
1531 547 m 1,44,-1
 1536 601 l 1,45,46
 1536 784.435 1536 784.435 1399 844 c 0,47,48
 1353 864 1353 864 1289 864 c 128,-1,49
 1225 864 1225 864 1171.5 839 c 128,-1,50
 1118 814 1118 814 1079 771 c 0,51,52
 999.487 683.332 999.487 683.332 989 547 c 1,53,-1
 1531 547 l 1,44,-1
332 383.5 m 128,-1,55
 291 341 291 341 291 292 c 128,-1,56
 291 243 291 243 304.5 217.5 c 128,-1,57
 318 192 318 192 340 175 c 0,58,59
 385.294 140 385.294 140 446.647 140 c 128,-1,60
 508 140 508 140 565.5 156.5 c 128,-1,61
 623 173 623 173 671.5 198.5 c 0,62,63
 765.259 247.796 765.259 247.796 817 316 c 1,64,65
 798 396 798 396 798 498 c 2,66,-1
 798 509 l 1,67,68
 560.094 497.338 560.094 497.338 466.547 461.669 c 128,-1,54
 373 426 373 426 332 383.5 c 128,-1,55
EndSplineSet
EndChar

StartChar: ccedilla
Encoding: 231 231 145
Width: 990
Flags: HW
LayerCount: 2
Fore
SplineSet
921 214 m 1,0,-1
 956 73 l 1,1,2
 840.288 -13.784 840.288 -13.784 616 -19 c 1,3,4
 605.091 -47.1819 605.091 -47.1819 600.545 -58.0909 c 0,5,6
 590.375 -82.5002 590.375 -82.5002 586 -100 c 1,7,8
 650 -116 650 -116 686.5 -154 c 128,-1,9
 723 -192 723 -192 723 -237.5 c 128,-1,10
 723 -283 723 -283 702.5 -317.5 c 128,-1,11
 682 -352 682 -352 650.5 -383.5 c 0,12,13
 588.737 -445.263 588.737 -445.263 505 -486 c 1,14,-1
 431 -411 l 1,15,-1
 471.5 -379.5 l 1,16,17
 546 -319.537 546 -319.537 546 -279 c 0,18,19
 546 -233.632 546 -233.632 429 -209 c 1,20,21
 451.672 -113.779 451.672 -113.779 506 -15 c 1,22,23
 310.27 8.72487 310.27 8.72487 201.5 146.5 c 0,24,25
 95 281.4 95 281.4 95 498 c 0,26,27
 95 719.752 95 719.752 240.5 869.5 c 0,28,29
 386.73 1020 386.73 1020 607 1020 c 0,30,31
 804.75 1020 804.75 1020 929 929 c 1,32,-1
 863 780 l 1,33,34
 750.263 864 750.263 864 589 864 c 0,35,36
 450.835 864 450.835 864 366 758.5 c 0,37,38
 285 657.769 285 657.769 285 510 c 0,39,40
 285 351.325 285 351.325 369.5 248.5 c 0,41,42
 458.663 140 458.663 140 614.858 140 c 128,-1,43
 771.053 140 771.053 140 921 214 c 1,0,-1
EndSplineSet
EndChar

StartChar: dotlessi
Encoding: 305 305 150
Width: 558
Flags: HW
LayerCount: 2
Fore
SplineSet
184 1000 m 1,0,-1
 374 1000 l 1,1,-1
 374 0 l 1,2,-1
 184 0 l 1,3,-1
 184 1000 l 1,0,-1
EndSplineSet
EndChar

StartChar: oe
Encoding: 339 339 156
Width: 2017
Flags: HW
LayerCount: 2
Fore
SplineSet
1499 -20 m 0,0,1
 1195.17 -20 1195.17 -20 1078 180 c 1,2,3
 959.53 37.229 959.53 37.229 765 -6 c 0,4,5
 702 -20 702 -20 611.5 -20 c 128,-1,6
 521 -20 521 -20 422 17 c 128,-1,7
 323 54 323 54 250.5 121.5 c 0,8,9
 95 266.276 95 266.276 95 492 c 0,10,11
 95 716.059 95 716.059 261.5 869.5 c 0,12,13
 424.809 1020 424.809 1020 654 1020 c 0,14,15
 865.924 1020 865.924 1020 1016 896.5 c 0,16,17
 1064 857 1064 857 1100 807 c 1,18,19
 1169 905 1169 905 1276.5 962.5 c 128,-1,20
 1384 1020 1384 1020 1494.5 1020 c 128,-1,21
 1605 1020 1605 1020 1679 993 c 128,-1,22
 1753 966 1753 966 1806.5 912.5 c 0,23,24
 1921 798 1921 798 1921 591 c 0,25,26
 1921 520 1921 520 1901 400 c 1,27,-1
 1205 400 l 1,28,29
 1227 279 1227 279 1303 209.5 c 128,-1,30
 1379 140 1379 140 1518 140 c 0,31,32
 1703.57 140 1703.57 140 1859 208 c 1,33,-1
 1891 65 l 1,34,35
 1788.35 5.11997 1788.35 5.11997 1597.5 -14.5 c 0,36,37
 1544 -20 1544 -20 1499 -20 c 0,0,1
1740 547 m 1,38,-1
 1744 601 l 1,39,40
 1744 784.435 1744 784.435 1607 844 c 0,41,42
 1561 864 1561 864 1497 864 c 128,-1,43
 1433 864 1433 864 1379.5 839 c 128,-1,44
 1326 814 1326 814 1287 771 c 0,45,46
 1207.49 683.332 1207.49 683.332 1197 547 c 1,47,-1
 1740 547 l 1,38,-1
285 501.5 m 0,48,49
 285 424 285 424 313 357.5 c 128,-1,50
 341 291 341 291 390 242.5 c 0,51,52
 493.557 140 493.557 140 654 140 c 0,53,54
 803 140 803 140 904.5 241.5 c 0,55,56
 1005 342 1005 342 1005 493 c 0,57,58
 1005 651 1005 651 900 756 c 0,59,60
 796 860 796 860 636 860 c 0,61,62
 487.427 860 487.427 860 385.5 757 c 0,63,64
 285 655.442 285 655.442 285 501.5 c 0,48,49
EndSplineSet
EndChar

StartChar: oslash
Encoding: 248 248 162
Width: 1290
Flags: HW
LayerCount: 2
Fore
SplineSet
625.12 -20 m 0,0,1
 501.24 -20 501.24 -20 387 31 c 1,2,-1
 267 -132 l 1,3,-1
 147 -45 l 1,4,-1
 262 111 l 1,5,6
 95 256.59 95 256.59 95 492 c 0,7,8
 95 716.059 95 716.059 261.5 869.5 c 0,9,10
 424.809 1020 424.809 1020 654 1020 c 0,11,12
 780.304 1020 780.304 1020 893 972 c 1,13,-1
 1000 1117 l 1,14,-1
 1120 1030 l 1,15,-1
 1020 894 l 1,16,17
 1195 744.926 1195 744.926 1195 504 c 0,18,19
 1195 281.353 1195 281.353 1028.5 129 c 0,20,21
 865.664 -20 865.664 -20 625.12 -20 c 0,0,1
789 830 m 1,22,23
 714 860 714 860 637.5 860 c 128,-1,24
 561 860 561 860 497 832.5 c 128,-1,25
 433 805 433 805 385.5 757 c 0,26,27
 285 655.442 285 655.442 285 504 c 0,28,29
 285 360.429 285 360.429 372 261 c 1,30,-1
 789 830 l 1,22,23
491 173 m 1,31,32
 567.312 140 567.312 140 648.156 140 c 128,-1,33
 729 140 729 140 793 167 c 128,-1,34
 857 194 857 194 904.5 241.5 c 0,35,36
 1005 342 1005 342 1005 493 c 256,37,38
 1005 642.667 1005 642.667 910 744 c 1,39,-1
 491 173 l 1,31,32
EndSplineSet
EndChar

StartChar: germandbls
Encoding: 223 223 163
Width: 1212
Flags: HW
LayerCount: 2
Fore
SplineSet
812 1355 m 1,0,1
 718.455 1404 718.455 1404 627.227 1404 c 128,-1,2
 536 1404 536 1404 490.5 1376 c 128,-1,3
 445 1348 445 1348 419.5 1300 c 0,4,5
 375 1216.24 375 1216.24 375 1050 c 2,6,-1
 375 1000 l 1,7,-1
 1093 1000 l 1,8,-1
 1093 852 l 1,9,-1
 746 423 l 1,10,11
 902.471 392.992 902.471 392.992 1003 299.5 c 0,12,13
 1113 197.2 1113 197.2 1113 62 c 0,14,15
 1113 -159.31 1113 -159.31 919 -311.5 c 0,16,17
 749.142 -444.751 749.142 -444.751 511 -485 c 1,18,-1
 454 -342 l 1,19,20
 669.619 -286.948 669.619 -286.948 777.5 -211 c 0,21,22
 913 -115.608 913 -115.608 913 24 c 0,23,24
 913 153.545 913 153.545 804.5 218 c 0,25,26
 708.55 275 708.55 275 534 275 c 1,27,-1
 534 423 l 1,28,-1
 881 852 l 1,29,-1
 375 852 l 1,30,-1
 375 0 l 1,31,-1
 184 0 l 1,32,-1
 184 1038 l 2,33,34
 184 1412.07 184 1412.07 427 1522 c 0,35,36
 511 1560 511 1560 599 1560 c 0,37,38
 744.304 1560 744.304 1560 857 1506 c 1,39,-1
 812 1355 l 1,0,1
EndSplineSet
EndChar

StartChar: AE
Encoding: 198 198 175
Width: 2118
Flags: HW
LayerCount: 2
Fore
SplineSet
952 1416 m 1,0,-1
 1989 1416 l 1,1,-1
 1989 1248 l 1,2,-1
 1137 1248 l 1,3,-1
 1137 866 l 1,4,-1
 1894 866 l 1,5,-1
 1894 698 l 1,6,-1
 1137 698 l 1,7,-1
 1137 168 l 1,8,-1
 2009 168 l 1,9,-1
 2009 0 l 1,10,-1
 952 0 l 1,11,-1
 952 277 l 1,12,-1
 332 277 l 1,13,-1
 135 0 l 1,14,-1
 -65 0 l 1,15,-1
 952 1416 l 1,0,-1
952 445 m 1,16,-1
 952 1149 l 1,17,-1
 451 445 l 1,18,-1
 952 445 l 1,16,-1
EndSplineSet
Position2: "'cpsp' Capital Spacing in Latin lookup 0 subtable" dx=16 dy=0 dh=32 dv=0
EndChar

StartChar: Ccedilla
Encoding: 199 199 176
Width: 1492
Flags: HW
LayerCount: 2
Fore
SplineSet
1329 1122 m 1,0,1
 1163.33 1270 1163.33 1270 902 1270 c 0,2,3
 665.116 1270 665.116 1270 499.5 1114 c 0,4,5
 333 957.168 333 957.168 333 723 c 0,6,7
 333 480.7 333 480.7 505 313 c 0,8,9
 676.282 146 676.282 146 920 146 c 0,10,11
 1097.38 146 1097.38 146 1273 235.5 c 0,12,13
 1325 262 1325 262 1363 293 c 1,14,-1
 1435 155 l 1,15,16
 1287.54 29.0468 1287.54 29.0468 1056 -8 c 0,17,18
 981 -20 981 -20 937.5 -20 c 2,19,-1
 887.5 -20 l 2,20,21
 881 -20 881 -20 874 -19 c 1,22,-1
 858 -57 l 2,23,24
 847.375 -82.5 847.375 -82.5 843 -100 c 1,25,26
 907 -116 907 -116 943.5 -154 c 128,-1,27
 980 -192 980 -192 980 -237.5 c 128,-1,28
 980 -283 980 -283 959.5 -317.5 c 128,-1,29
 939 -352 939 -352 907.5 -383.5 c 0,30,31
 845.737 -445.263 845.737 -445.263 762 -486 c 1,32,-1
 688 -411 l 1,33,-1
 728.5 -379.5 l 1,34,35
 803 -319.537 803 -319.537 803 -279 c 0,36,37
 803 -233.632 803 -233.632 686 -209 c 1,38,39
 695.84 -165.703 695.84 -165.703 713.42 -123.352 c 2,40,-1
 742.5 -55.5 l 2,41,42
 754 -30 754 -30 765 -9 c 1,43,44
 493.645 33.8455 493.645 33.8455 318.5 223.5 c 0,45,46
 137 420.035 137 420.035 137 693 c 0,47,48
 137 1016.06 137 1016.06 365 1228 c 0,49,50
 507.555 1360.52 507.555 1360.52 710.5 1411 c 0,51,52
 811 1436 811 1436 939 1436 c 128,-1,53
 1067 1436 1067 1436 1195 1392 c 128,-1,54
 1323 1348 1323 1348 1422 1270 c 1,55,-1
 1329 1122 l 1,0,1
EndSplineSet
Position2: "'cpsp' Capital Spacing in Latin lookup 0 subtable" dx=16 dy=0 dh=32 dv=0
EndChar

StartChar: Oslash
Encoding: 216 216 191
Width: 1822
Flags: HW
LayerCount: 2
Fore
SplineSet
902 -20 m 0,0,1
 698.976 -20 698.976 -20 531 65 c 1,2,-1
 392 -124 l 1,3,-1
 258 -30 l 1,4,-1
 393 153 l 1,5,6
 275 249 275 249 206 386.5 c 128,-1,7
 137 524 137 524 137 693 c 0,8,9
 137 1016.06 137 1016.06 365 1228 c 0,10,11
 507.555 1360.52 507.555 1360.52 710.5 1411 c 0,12,13
 811 1436 811 1436 920 1436 c 0,14,15
 1112.77 1436 1112.77 1436 1281 1355 c 1,16,-1
 1415 1536 l 1,17,-1
 1549 1442 l 1,18,-1
 1421 1268 l 1,19,20
 1685 1056.8 1685 1056.8 1685 723 c 0,21,22
 1685 399.944 1685 399.944 1457 188 c 0,23,24
 1314.44 55.4837 1314.44 55.4837 1111.5 5 c 0,25,26
 1011 -20 1011 -20 902 -20 c 0,0,1
1171 1206 m 1,27,28
 1045.06 1270 1045.06 1270 914.532 1270 c 128,-1,29
 784 1270 784 1270 680.5 1228.5 c 128,-1,30
 577 1187 577 1187 499.5 1114 c 0,31,32
 333 957.168 333 957.168 333 723 c 0,33,34
 333 477.519 333 477.519 508 309 c 1,35,-1
 1171 1206 l 1,27,28
641 214 m 1,36,37
 770.818 146 770.818 146 904.409 146 c 128,-1,38
 1038 146 1038 146 1141.5 187.5 c 128,-1,39
 1245 229 1245 229 1322 302 c 0,40,41
 1489 460.325 1489 460.325 1489 693 c 0,42,43
 1489 819 1489 819 1440 927 c 128,-1,44
 1391 1035 1391 1035 1306 1113 c 1,45,-1
 641 214 l 1,36,37
EndSplineSet
Position2: "'cpsp' Capital Spacing in Latin lookup 0 subtable" dx=16 dy=0 dh=32 dv=0
EndChar

StartChar: OE
Encoding: 338 338 192
Width: 2252
Flags: HW
LayerCount: 2
Fore
SplineSet
197.5 405 m 128,-1,1
 137 536 137 536 137 669 c 128,-1,2
 137 802 137 802 164.5 899.5 c 128,-1,3
 192 997 192 997 243 1079.5 c 128,-1,4
 294 1162 294 1162 365 1228 c 128,-1,5
 436 1294 436 1294 523 1340 c 0,6,7
 704.565 1436 704.565 1436 920 1436 c 0,8,9
 1013 1436 1013 1436 1104 1416 c 1,10,-1
 2123 1416 l 1,11,-1
 2123 1248 l 1,12,-1
 1271 1248 l 1,13,-1
 1271 866 l 1,14,-1
 2028 866 l 1,15,-1
 2028 698 l 1,16,-1
 1271 698 l 1,17,-1
 1271 168 l 1,18,-1
 2143 168 l 1,19,-1
 2143 0 l 1,20,-1
 1090 0 l 1,21,22
 998 -20 998 -20 871.5 -20 c 128,-1,23
 745 -20 745 -20 606 32.5 c 128,-1,24
 467 85 467 85 362.5 179.5 c 128,-1,0
 258 274 258 274 197.5 405 c 128,-1,1
377.5 941 m 128,-1,26
 333 841 333 841 333 721 c 128,-1,27
 333 601 333 601 379 496 c 128,-1,28
 425 391 425 391 505 313 c 0,29,30
 676.282 146 676.282 146 920 146 c 0,31,32
 1008 146 1008 146 1086 168 c 1,33,-1
 1086 1241 l 1,34,35
 997 1270 997 1270 890.5 1270 c 128,-1,36
 784 1270 784 1270 680.5 1228.5 c 128,-1,37
 577 1187 577 1187 499.5 1114 c 128,-1,25
 422 1041 422 1041 377.5 941 c 128,-1,26
EndSplineSet
Position2: "'cpsp' Capital Spacing in Latin lookup 0 subtable" dx=16 dy=0 dh=32 dv=0
EndChar

StartChar: onesuperior
Encoding: 185 185 216
Width: 710
Flags: HW
LayerCount: 2
Fore
SplineSet
326 1593 m 1,0,-1
 113 1472 l 1,1,-1
 61 1613 l 1,2,-1
 338 1762 l 1,3,-1
 503 1762 l 1,4,-1
 503 866 l 1,5,-1
 326 866 l 1,6,-1
 326 1593 l 1,0,-1
EndSplineSet
EndChar

StartChar: twosuperior
Encoding: 178 178 217
Width: 962
Flags: HW
LayerCount: 2
Fore
SplineSet
167 1706 m 1,0,1
 317.867 1779 317.867 1779 466 1779 c 0,2,3
 700.139 1779 700.139 1779 779 1631.5 c 0,4,5
 806 1581 806 1581 806 1520.5 c 128,-1,6
 806 1460 806 1460 790 1414.5 c 128,-1,7
 774 1369 774 1369 745.5 1326.5 c 0,8,9
 696.48 1253.4 696.48 1253.4 588 1163 c 2,10,-1
 415 1018 l 1,11,-1
 819 1018 l 1,12,-1
 819 866 l 1,13,-1
 190 866 l 1,14,-1
 190 1013 l 1,15,-1
 406 1196 l 1,16,17
 518.866 1293.06 518.866 1293.06 558.433 1344.03 c 0,18,19
 631 1437.51 631 1437.51 631 1504 c 0,20,21
 631 1568.92 631 1568.92 574 1604 c 0,22,23
 523.625 1635 523.625 1635 425.466 1635 c 128,-1,24
 327.308 1635 327.308 1635 210 1574 c 1,25,-1
 167 1706 l 1,0,1
EndSplineSet
EndChar

StartChar: threesuperior
Encoding: 179 179 218
Width: 939
Flags: HW
LayerCount: 2
Fore
SplineSet
581 1537 m 0,0,1
 581 1633 581 1633 438.409 1633 c 128,-1,2
 295.818 1633 295.818 1633 208 1587 c 1,3,-1
 164 1716 l 1,4,5
 290 1779 290 1779 451 1779 c 0,6,7
 576.729 1779 576.729 1779 662 1720.5 c 0,8,9
 756 1656.01 756 1656.01 756 1545 c 0,10,11
 756 1481 756 1481 718.5 1427 c 128,-1,12
 681 1373 681 1373 607 1347 c 1,13,-1
 607 1341 l 1,14,15
 694 1319 694 1319 740 1261 c 128,-1,16
 786 1203 786 1203 786 1127 c 128,-1,17
 786 1051 786 1051 754.5 1000 c 128,-1,18
 723 949 723 949 672 915 c 0,19,20
 571.5 848 571.5 848 420 848 c 0,21,22
 237.909 848 237.909 848 125 917 c 1,23,-1
 169 1062 l 1,24,25
 287.345 996 287.345 996 438 996 c 0,26,27
 556.8 996 556.8 996 595.5 1060.5 c 0,28,29
 609 1083 609 1083 609 1123.5 c 128,-1,30
 609 1164 609 1164 584.5 1193 c 128,-1,31
 560 1222 560 1222 515.5 1236 c 0,32,33
 434.551 1261.47 434.551 1261.47 268 1242 c 1,34,-1
 268 1398 l 1,35,-1
 318 1396 l 2,36,37
 338 1395 338 1395 359 1395 c 2,38,-1
 392 1395 l 2,39,40
 517.604 1395 517.604 1395 565 1473.5 c 0,41,42
 581 1500 581 1500 581 1537 c 0,0,1
EndSplineSet
EndChar

StartChar: onequarter
Encoding: 188 188 219
Width: 1871
Flags: HW
LayerCount: 2
Fore
SplineSet
1645 1761 m 1,0,-1
 1766 1661 l 1,1,-1
 149 -267 l 1,2,-1
 28 -167 l 1,3,-1
 1645 1761 l 1,0,-1
1418 629 m 1,4,-1
 1595 629 l 1,5,-1
 1595 88 l 1,6,-1
 1772 88 l 1,7,-1
 1772 -63 l 1,8,-1
 1595 -63 l 1,9,-1
 1595 -266 l 1,10,-1
 1418 -266 l 1,11,-1
 1418 -63 l 1,12,-1
 979 -63 l 1,13,-1
 946 41 l 1,14,-1
 1418 629 l 1,4,-1
1418 88 m 1,15,-1
 1418 424 l 1,16,-1
 1156 88 l 1,17,-1
 1418 88 l 1,15,-1
326 1593 m 1,18,-1
 113 1472 l 1,19,-1
 61 1613 l 1,20,-1
 338 1762 l 1,21,-1
 503 1762 l 1,22,-1
 503 866 l 1,23,-1
 326 866 l 1,24,-1
 326 1593 l 1,18,-1
EndSplineSet
EndChar

StartChar: onehalf
Encoding: 189 189 220
Width: 1931
Flags: HW
LayerCount: 2
Fore
SplineSet
1645 1761 m 1,0,-1
 1766 1661 l 1,1,-1
 149 -267 l 1,2,-1
 28 -167 l 1,3,-1
 1645 1761 l 1,0,-1
326 1593 m 1,4,-1
 113 1472 l 1,5,-1
 61 1613 l 1,6,-1
 338 1762 l 1,7,-1
 503 1762 l 1,8,-1
 503 866 l 1,9,-1
 326 866 l 1,10,-1
 326 1593 l 1,4,-1
1136 574 m 1,11,12
 1286.87 647 1286.87 647 1435 647 c 0,13,14
 1669.14 647 1669.14 647 1748 499.5 c 0,15,16
 1775 449 1775 449 1775 388.5 c 128,-1,17
 1775 328 1775 328 1759 282.5 c 128,-1,18
 1743 237 1743 237 1714.5 194.5 c 0,19,20
 1665.48 121.4 1665.48 121.4 1557 31 c 2,21,-1
 1384 -114 l 1,22,-1
 1788 -114 l 1,23,-1
 1788 -266 l 1,24,-1
 1159 -266 l 1,25,-1
 1159 -119 l 1,26,-1
 1375 64 l 1,27,28
 1487.87 161.065 1487.87 161.065 1527.43 212.032 c 0,29,30
 1600 305.508 1600 305.508 1600 372 c 0,31,32
 1600 436.923 1600 436.923 1543 472 c 0,33,34
 1492.62 503 1492.62 503 1394.47 503 c 128,-1,35
 1296.31 503 1296.31 503 1179 442 c 1,36,-1
 1136 574 l 1,11,12
EndSplineSet
EndChar

StartChar: threequarters
Encoding: 190 190 221
Width: 1981
Flags: HW
LayerCount: 2
Fore
SplineSet
1755 1761 m 1,0,-1
 1876 1661 l 1,1,-1
 259 -267 l 1,2,-1
 138 -167 l 1,3,-1
 1755 1761 l 1,0,-1
1528 629 m 1,4,-1
 1705 629 l 1,5,-1
 1705 88 l 1,6,-1
 1882 88 l 1,7,-1
 1882 -63 l 1,8,-1
 1705 -63 l 1,9,-1
 1705 -266 l 1,10,-1
 1528 -266 l 1,11,-1
 1528 -63 l 1,12,-1
 1089 -63 l 1,13,-1
 1056 41 l 1,14,-1
 1528 629 l 1,4,-1
1528 88 m 1,15,-1
 1528 424 l 1,16,-1
 1266 88 l 1,17,-1
 1528 88 l 1,15,-1
581 1537 m 0,18,19
 581 1633 581 1633 438.409 1633 c 128,-1,20
 295.818 1633 295.818 1633 208 1587 c 1,21,-1
 164 1716 l 1,22,23
 290 1779 290 1779 451 1779 c 0,24,25
 576.729 1779 576.729 1779 662 1720.5 c 0,26,27
 756 1656.01 756 1656.01 756 1545 c 0,28,29
 756 1481 756 1481 718.5 1427 c 128,-1,30
 681 1373 681 1373 607 1347 c 1,31,-1
 607 1341 l 1,32,33
 694 1319 694 1319 740 1261 c 128,-1,34
 786 1203 786 1203 786 1127 c 128,-1,35
 786 1051 786 1051 754.5 1000 c 128,-1,36
 723 949 723 949 672 915 c 0,37,38
 571.5 848 571.5 848 420 848 c 0,39,40
 237.909 848 237.909 848 125 917 c 1,41,-1
 169 1062 l 1,42,43
 287.345 996 287.345 996 438 996 c 0,44,45
 556.8 996 556.8 996 595.5 1060.5 c 0,46,47
 609 1083 609 1083 609 1123.5 c 128,-1,48
 609 1164 609 1164 584.5 1193 c 128,-1,49
 560 1222 560 1222 515.5 1236 c 0,50,51
 434.551 1261.47 434.551 1261.47 268 1242 c 1,52,-1
 268 1398 l 1,53,-1
 318 1396 l 2,54,55
 338 1395 338 1395 359 1395 c 2,56,-1
 392 1395 l 2,57,58
 517.604 1395 517.604 1395 565 1473.5 c 0,59,60
 581 1500 581 1500 581 1537 c 0,18,19
EndSplineSet
EndChar

StartChar: multiply
Encoding: 215 215 222
Width: 1336
Flags: HW
LayerCount: 2
Fore
SplineSet
543 523 m 1,0,-1
 236 831 l 1,1,-1
 367 961 l 1,2,-1
 674 654 l 1,3,-1
 981 961 l 1,4,-1
 1099 843 l 1,5,-1
 792 536 l 1,6,-1
 1099 229 l 1,7,-1
 969 98 l 1,8,-1
 661 405 l 1,9,-1
 354 98 l 1,10,-1
 236 216 l 1,11,-1
 543 523 l 1,0,-1
EndSplineSet
EndChar

StartChar: brokenbar
Encoding: 166 166 224
Width: 553
Flags: HW
LayerCount: 2
Fore
SplineSet
193 1561 m 1,0,-1
 360 1561 l 1,1,-1
 360 741 l 1,2,-1
 193 741 l 1,3,-1
 193 1561 l 1,0,-1
360 353 m 1,4,-1
 360 -467 l 1,5,-1
 193 -467 l 1,6,-1
 193 353 l 1,7,-1
 360 353 l 1,4,-1
EndSplineSet
EndChar

StartChar: currency
Encoding: 164 164 225
Width: 1199
Flags: HW
LayerCount: 2
Fore
SplineSet
592 248 m 256,0,1
 463.097 248 463.097 248 364 312 c 1,2,-1
 169 93 l 1,3,-1
 59 203 l 1,4,-1
 274 394 l 1,5,6
 199 494 199 494 199 628 c 256,7,8
 199 762.974 199 762.974 281 866 c 1,9,-1
 59 1064 l 1,10,-1
 169 1174 l 1,11,-1
 370 948 l 1,12,13
 474.914 1020 474.914 1020 606 1020 c 256,14,15
 733.355 1020 733.355 1020 834 955 c 1,16,-1
 1030 1174 l 1,17,-1
 1140 1064 l 1,18,-1
 923 872 l 1,19,20
 999 770.667 999 770.667 999 637 c 256,21,22
 999 503.316 999 503.316 918 401 c 1,23,-1
 1140 203 l 1,24,-1
 1030 93 l 1,25,-1
 829 319 l 1,26,27
 722.5 248 722.5 248 592 248 c 256,0,1
604 389 m 0,28,29
 655 389 655 389 696 408 c 128,-1,30
 737 427 737 427 766.5 459 c 0,31,32
 828 525.712 828 525.712 828 628 c 0,33,34
 828 736.258 828 736.258 763 806.5 c 0,35,36
 695.91 879 695.91 879 592 879 c 0,37,38
 495.864 879 495.864 879 431.5 807 c 0,39,40
 370 738.203 370 738.203 370 637 c 0,41,42
 370 529.194 370 529.194 435 460 c 0,43,44
 501.697 389 501.697 389 604 389 c 0,28,29
EndSplineSet
EndChar

StartChar: commaaccent
Encoding: 65539 -1 226
Width: 598
Flags: HW
LayerCount: 2
Fore
SplineSet
169 -445 m 1,0,1
 270.024 -258.904 270.024 -258.904 238 -118 c 1,2,-1
 400 -99 l 1,3,4
 433.831 -247.334 433.831 -247.334 322.5 -411.5 c 0,5,6
 293 -455 293 -455 265 -486 c 1,7,-1
 169 -445 l 1,0,1
EndSplineSet
EndChar

StartChar: grave.cap
Encoding: 65540 -1 227
Width: 598
Flags: HW
LayerCount: 2
Fore
SplineSet
20 1723 m 1,0,-1
 104 1862 l 1,1,-1
 589 1651 l 1,2,-1
 523 1542 l 1,3,-1
 20 1723 l 1,0,-1
EndSplineSet
EndChar

StartChar: acute.cap
Encoding: 65541 -1 228
Width: 598
Flags: HW
LayerCount: 2
Fore
SplineSet
51 1646 m 1,0,-1
 536 1876 l 1,1,-1
 625 1739 l 1,2,-1
 123 1538 l 1,3,-1
 51 1646 l 1,0,-1
EndSplineSet
EndChar

StartChar: circumflex.cap
Encoding: 65542 -1 229
Width: 598
Flags: HW
LayerCount: 2
Fore
SplineSet
-91 1622 m 1,0,-1
 299 1886 l 1,1,-1
 697 1625 l 1,2,-1
 594 1536 l 1,3,-1
 293 1702 l 1,4,-1
 0 1535 l 1,5,-1
 -91 1622 l 1,0,-1
EndSplineSet
EndChar

StartChar: dieresis.cap
Encoding: 65543 -1 230
Width: 598
Flags: HW
LayerCount: 2
Fore
SplineSet
545 1572 m 256,0,1
 500 1572 500 1572 469.5 1602.5 c 128,-1,2
 439 1633 439 1633 439 1678 c 256,3,4
 439 1723 439 1723 469.5 1753.5 c 128,-1,5
 500 1784 500 1784 545 1784 c 256,6,7
 590 1784 590 1784 620.5 1753.5 c 128,-1,8
 651 1723 651 1723 651 1678 c 256,9,10
 651 1633 651 1633 620.5 1602.5 c 128,-1,11
 590 1572 590 1572 545 1572 c 256,0,1
53 1572 m 256,12,13
 8 1572 8 1572 -22.5 1602.5 c 128,-1,14
 -53 1633 -53 1633 -53 1678 c 256,15,16
 -53 1723 -53 1723 -22.5 1753.5 c 128,-1,17
 8 1784 8 1784 53 1784 c 256,18,19
 98 1784 98 1784 128.5 1753.5 c 128,-1,20
 159 1723 159 1723 159 1678 c 256,21,22
 159 1633 159 1633 128.5 1602.5 c 128,-1,23
 98 1572 98 1572 53 1572 c 256,12,13
EndSplineSet
EndChar

StartChar: tilde.cap
Encoding: 65544 -1 231
Width: 598
Flags: HW
LayerCount: 2
Fore
SplineSet
453 1720 m 0,0,1
 525.68 1720 525.68 1720 582 1808 c 1,2,-1
 680 1746 l 1,3,4
 615.074 1613.44 615.074 1613.44 485.5 1580.5 c 0,5,6
 456 1573 456 1573 418 1573 c 128,-1,7
 380 1573 380 1573 340 1586.5 c 128,-1,8
 300 1600 300 1600 263 1616.5 c 2,9,-1
 194.5 1647 l 2,10,11
 163 1661 163 1661 137 1661 c 0,12,13
 90.1765 1661 90.1765 1661 41 1617 c 0,14,15
 19 1598 19 1598 2 1573 c 1,16,-1
 -103 1644 l 1,17,18
 -48.9795 1732.75 -48.9795 1732.75 51.5 1782.5 c 0,19,20
 103 1808 103 1808 158 1808 c 128,-1,21
 213 1808 213 1808 253.5 1794 c 128,-1,22
 294 1780 294 1780 331 1763.5 c 2,23,-1
 399 1733.5 l 2,24,25
 430 1720 430 1720 453 1720 c 0,0,1
EndSplineSet
EndChar

StartChar: caron.cap
Encoding: 65545 -1 232
Width: 598
Flags: HW
LayerCount: 2
Fore
SplineSet
-91 1796 m 1,0,-1
 12 1885 l 1,1,-1
 313 1721 l 1,2,-1
 606 1886 l 1,3,-1
 697 1799 l 1,4,-1
 307 1535 l 1,5,-1
 -91 1796 l 1,0,-1
EndSplineSet
EndChar

StartChar: ring.cap
Encoding: 65546 -1 233
Width: 938
Flags: HW
LayerCount: 2
Fore
SplineSet
553.5 1528 m 128,-1,1
 510 1514 510 1514 461.5 1514 c 128,-1,2
 413 1514 413 1514 372 1526.5 c 128,-1,3
 331 1539 331 1539 301 1563.5 c 0,4,5
 238 1614.95 238 1614.95 238 1711 c 0,6,7
 238 1804.33 238 1804.33 309 1863.5 c 0,8,9
 376.8 1920 376.8 1920 476 1920 c 0,10,11
 631.622 1920 631.622 1920 684 1806 c 0,12,13
 701 1769 701 1769 701 1720.5 c 128,-1,14
 701 1672 701 1672 681.5 1634 c 128,-1,15
 662 1596 662 1596 629.5 1569 c 128,-1,0
 597 1542 597 1542 553.5 1528 c 128,-1,1
390 1642.5 m 128,-1,17
 424 1617 424 1617 472.5 1617 c 128,-1,18
 521 1617 521 1617 552 1641.5 c 128,-1,19
 583 1666 583 1666 583 1714.5 c 128,-1,20
 583 1763 583 1763 548.5 1790 c 128,-1,21
 514 1817 514 1817 465.5 1817 c 128,-1,22
 417 1817 417 1817 386.5 1791 c 128,-1,23
 356 1765 356 1765 356 1716.5 c 128,-1,16
 356 1668 356 1668 390 1642.5 c 128,-1,17
EndSplineSet
EndChar

StartChar: eth
Encoding: 240 240 234
Width: 1290
Flags: HW
LayerCount: 2
Fore
SplineSet
413 1561 m 1,0,1
 624.853 1521.63 624.853 1521.63 790 1420 c 1,2,-1
 984 1559 l 1,3,-1
 1075 1435 l 1,4,-1
 917 1322 l 1,5,6
 1190 1063.96 1190 1063.96 1190 621 c 0,7,8
 1190 332.288 1190 332.288 1039 157.5 c 0,9,10
 885.657 -20 885.657 -20 626 -20 c 0,11,12
 392.041 -20 392.041 -20 246 106.5 c 0,13,14
 95 237.296 95 237.296 95 462 c 0,15,16
 95 683.758 95 683.758 256.5 829 c 0,17,18
 413.284 970 413.284 970 644 970 c 0,19,20
 835.333 970 835.333 970 970 869 c 1,21,22
 913.296 1082.73 913.296 1082.73 764 1212 c 1,23,-1
 548 1057 l 1,24,-1
 457 1181 l 1,25,-1
 628 1304 l 1,26,27
 509 1365 509 1365 348 1396 c 1,28,-1
 413 1561 l 1,0,1
1000 610 m 1,29,-1
 999 654 l 1,30,31
 823.5 810 823.5 810 626 810 c 0,32,33
 476.67 810 476.67 810 380.5 717 c 0,34,35
 285 624.648 285 624.648 285 474 c 0,36,37
 285 317.926 285 317.926 385 227.5 c 0,38,39
 481.765 140 481.765 140 644 140 c 0,40,41
 813.171 140 813.171 140 907.5 267.5 c 0,42,43
 1000 392.527 1000 392.527 1000 610 c 1,29,-1
EndSplineSet
EndChar

StartChar: hbar
Encoding: 295 295 235
Width: 1337
Flags: HW
LayerCount: 2
Fore
SplineSet
374 913 m 1,0,1
 521.762 1020 521.762 1020 718 1020 c 0,2,3
 1174 1020 1174 1020 1174 519 c 2,4,-1
 1174 0 l 1,5,-1
 985 0 l 1,6,-1
 984 507 l 2,7,8
 984 679.785 984 679.785 924.5 764 c 0,9,10
 856.674 860 856.674 860 705 860 c 0,11,12
 542.176 860 542.176 860 431.5 780.5 c 0,13,14
 396 755 396 755 374 722 c 1,15,-1
 374 0 l 1,16,-1
 184 0 l 1,17,-1
 184 1205 l 1,18,-1
 5 1205 l 1,19,-1
 5 1359 l 1,20,-1
 184 1359 l 1,21,-1
 184 1562 l 1,22,-1
 374 1561 l 1,23,-1
 374 1359 l 1,24,-1
 655 1359 l 1,25,-1
 655 1205 l 1,26,-1
 374 1205 l 1,27,-1
 374 913 l 1,0,1
EndSplineSet
EndChar

StartChar: dotlessj
Encoding: 567 567 238
Width: 558
Flags: HW
LayerCount: 2
Fore
SplineSet
184 1000 m 1,0,-1
 374 1000 l 1,1,-1
 374 -65 l 2,2,3
 374 -307.222 374 -307.222 244 -417 c 0,4,5
 199 -455 199 -455 135 -485 c 1,6,-1
 55 -356 l 1,7,8
 126.429 -313.143 126.429 -313.143 154.5 -257 c 0,9,10
 184 -198 184 -198 184 -85 c 2,11,-1
 184 1000 l 1,0,-1
EndSplineSet
EndChar

StartChar: kgreenlandic
Encoding: 312 312 241
Width: 1112
Flags: HW
LayerCount: 2
Fore
SplineSet
184 1000 m 1,0,-1
 374 1000 l 1,1,-1
 374 560 l 1,2,-1
 823 1000 l 1,3,-1
 1045 1000 l 1,4,-1
 575 540 l 1,5,-1
 855 238 l 1,6,7
 944.411 143.756 944.411 143.756 1067 135 c 1,8,-1
 1038 0 l 1,9,10
 886.943 -20.8354 886.943 -20.8354 792.5 56 c 0,11,12
 763 80 763 80 735 111 c 2,13,-1
 374 501 l 1,14,-1
 374 0 l 1,15,-1
 184 0 l 1,16,-1
 184 1000 l 1,0,-1
EndSplineSet
EndChar

StartChar: lslash
Encoding: 322 322 243
Width: 715
Flags: HW
LayerCount: 2
Fore
SplineSet
254 610 m 1,0,-1
 124 552 l 1,1,-1
 61 693 l 1,2,-1
 254 779 l 1,3,-1
 254 1561 l 1,4,-1
 444 1561 l 1,5,-1
 444 863 l 1,6,-1
 621 942 l 1,7,-1
 684 801 l 1,8,-1
 444 694 l 1,9,-1
 444 342 l 2,10,11
 444 240.348 444 240.348 458.5 205.674 c 0,12,13
 485.539 141.016 485.539 141.016 554 123 c 1,14,-1
 526 0 l 1,15,16
 371.154 -20.0389 371.154 -20.0389 305 82.5 c 0,17,18
 254 161.55 254 161.55 254 328 c 2,19,-1
 254 610 l 1,0,-1
EndSplineSet
EndChar

StartChar: thorn
Encoding: 254 254 245
Width: 1269
Flags: HW
LayerCount: 2
Fore
SplineSet
601.8 -20 m 0,0,1
 479.6 -20 479.6 -20 374 2 c 1,2,-1
 374 -467 l 1,3,-1
 184 -467 l 1,4,-1
 184 1562 l 1,5,-1
 374 1562 l 1,6,-1
 374 917 l 1,7,8
 513.05 1020 513.05 1020 698 1020 c 0,9,10
 913.791 1020 913.791 1020 1045 883.5 c 0,11,12
 1174 749.298 1174 749.298 1174 530 c 0,13,14
 1174 284.882 1174 284.882 1010.5 131 c 0,15,16
 850.062 -20 850.062 -20 601.8 -20 c 0,0,1
374 173 m 1,17,18
 515.429 140 515.429 140 610.214 140 c 128,-1,19
 705 140 705 140 773 166.5 c 128,-1,20
 841 193 841 193 888 242 c 0,21,22
 984 342.085 984 342.085 984 518 c 0,23,24
 984 665.688 984 665.688 905.5 760.5 c 0,25,26
 823.118 860 823.118 860 685 860 c 0,27,28
 526.549 860 526.549 860 426.5 781.5 c 0,29,30
 394 756 394 756 374 723 c 1,31,-1
 374 173 l 1,17,18
EndSplineSet
EndChar

StartChar: Eth
Encoding: 208 208 249
Width: 1631
Flags: HW
LayerCount: 2
Fore
SplineSet
285 706 m 1,0,-1
 27 706 l 1,1,-1
 27 860 l 1,2,-1
 285 860 l 1,3,-1
 285 1416 l 1,4,-1
 866 1416 l 2,5,6
 1190.5 1416 1190.5 1416 1389.5 1233.5 c 0,7,8
 1594 1045.95 1594 1045.95 1594 731 c 0,9,10
 1594 398.05 1594 398.05 1384 197.5 c 0,11,12
 1177.19 9.71709e-06 1177.19 9.71709e-06 838 0 c 2,13,-1
 285 0 l 1,14,-1
 285 706 l 1,0,-1
863 168 m 2,15,16
 1112.25 168 1112.25 168 1256 318 c 0,17,18
 1398 466.174 1398 466.174 1398 719 c 0,19,20
 1398 962.73 1398 962.73 1241 1107 c 0,21,22
 1087.56 1248 1087.56 1248 837 1248 c 2,23,-1
 470 1248 l 1,24,-1
 470 860 l 1,25,-1
 969 860 l 1,26,-1
 969 706 l 1,27,-1
 470 706 l 1,28,-1
 470 168 l 1,29,-1
 863 168 l 2,15,16
EndSplineSet
Position2: "'cpsp' Capital Spacing in Latin lookup 0 subtable" dx=16 dy=0 dh=32 dv=0
EndChar

StartChar: IJ
Encoding: 306 306 251
Width: 1428
Flags: HW
LayerCount: 2
Fore
SplineSet
776 299 m 1,0,1
 795 227 795 227 830 186.5 c 128,-1,2
 865 146 865 146 933.5 146 c 128,-1,3
 1002 146 1002 146 1030.5 198 c 128,-1,4
 1059 250 1059 250 1059 354 c 2,5,-1
 1059 1416 l 1,6,-1
 1244 1416 l 1,7,-1
 1244 384 l 2,8,9
 1244 178 1244 178 1156 79 c 128,-1,10
 1068 -20 1068 -20 905 -20 c 0,11,12
 798 -20 798 -20 724.5 53.5 c 0,13,14
 652 126 652 126 632 254 c 1,15,-1
 776 299 l 1,0,1
184 1416 m 1,16,-1
 369 1416 l 1,17,-1
 369 0 l 1,18,-1
 184 0 l 1,19,-1
 184 1416 l 1,16,-1
EndSplineSet
Position2: "'cpsp' Capital Spacing in Latin lookup 0 subtable" dx=16 dy=0 dh=32 dv=0
EndChar

StartChar: Lslash
Encoding: 321 321 253
Width: 1328
Flags: HW
LayerCount: 2
Fore
SplineSet
304 504 m 1,0,-1
 85 406 l 1,1,-1
 23 547 l 1,2,-1
 304 672 l 1,3,-1
 304 1416 l 1,4,-1
 489 1416 l 1,5,-1
 489 755 l 1,6,-1
 957 964 l 1,7,-1
 1019 823 l 1,8,-1
 489 586 l 1,9,-1
 489 168 l 1,10,-1
 1261 168 l 1,11,-1
 1261 0 l 1,12,-1
 304 0 l 1,13,-1
 304 504 l 1,0,-1
EndSplineSet
Position2: "'cpsp' Capital Spacing in Latin lookup 0 subtable" dx=16 dy=0 dh=32 dv=0
EndChar

StartChar: Thorn
Encoding: 222 222 255
Width: 1440
Flags: HW
LayerCount: 2
Fore
SplineSet
184 1416 m 1,0,-1
 369 1416 l 1,1,-1
 369 1221 l 1,2,-1
 695 1221 l 2,3,4
 1143.99 1221 1143.99 1221 1283 968 c 0,5,6
 1333 877 1333 877 1333 745 c 256,7,8
 1333 494.864 1333 494.864 1132 360.5 c 0,9,10
 951.74 240 951.74 240 667 240 c 2,11,-1
 369 240 l 1,12,-1
 369 0 l 1,13,-1
 184 0 l 1,14,-1
 184 1416 l 1,0,-1
692 408 m 2,15,16
 1000.55 408 1000.55 408 1101 581 c 0,17,18
 1137 643 1137 643 1137 733 c 256,19,20
 1137 899.198 1137 899.198 991.5 982.5 c 0,21,22
 868.36 1053 868.36 1053 666 1053 c 2,23,-1
 369 1053 l 1,24,-1
 369 408 l 1,25,-1
 692 408 l 2,15,16
EndSplineSet
Position2: "'cpsp' Capital Spacing in Latin lookup 0 subtable" dx=16 dy=0 dh=32 dv=0
EndChar

